<svg width="2062" height="1319" viewBox="0 0 2062 1319" fill="none" xmlns="http://www.w3.org/2000/svg">
<g clip-path="url(#clip0_22_90)">
<rect width="2062" height="1319" fill="white"/>
<rect width="2062" height="1319" fill="#638D5F"/>
<path d="M1928.5 1001C1996 803 1820.5 -43.5 1798 -52.5L1834 -142.5C2017.6 177.9 2036.5 735.333 2023 974L1928.5 1001Z" fill="#436648" fill-opacity="0.5"/>
<path d="M1312 -115.5L1339 929H1266.5L1221.5 -115.5H1312Z" fill="#436648" fill-opacity="0.5"/>
<path d="M1167.5 393C1167.5 436.2 1062.5 735.333 1010 879.5L902 924.5C938 812 1025.3 567.1 1086.5 487.5C1147.7 407.9 1112 73.3333 1086.5 -84H1167.5V222V393Z" fill="#436648" fill-opacity="0.5"/>
<path d="M821 352.5C795.8 471.3 831.5 807.333 852.5 960.5L726.499 1041.5V438L636.499 253.5C615.499 211.5 578.9 114 600.5 60C622.1 6 609.5 -34.5 600.5 -48L658.999 -7.5C649.999 31.5 632.899 123.9 636.499 181.5C640.099 239.1 697.999 292.5 726.499 312L821 -7.5H910.999C891.499 63 846.2 233.7 821 352.5Z" fill="#436648" fill-opacity="0.5"/>
<path d="M276.5 1001C330.5 907.656 281 77.3591 276.5 30.6873L191 -36.7276L308 -156C315.5 -116.243 336.8 9.94423 362 196.632C387.2 383.319 414.5 772.635 425 943.957L276.5 1001Z" fill="#436648" fill-opacity="0.5"/>
<path d="M37.9999 812C-5.2001 722 34.9999 231.167 60.4999 -3L-7 -43.5V974H101C98 957.5 81.1999 902 37.9999 812Z" fill="#436648" fill-opacity="0.5"/>
<path d="M2006.5 528L2071 501V887.5H-9.5V717.5C8.5 651 223 579.5 305.5 604.5C388 629.5 402 529.5 444.5 465.5C476.689 417.027 560.715 372.796 604.932 353.938C607.312 352.622 609.673 351.625 612 351C609.781 351.897 607.419 352.877 604.932 353.938C579.897 367.785 552.763 417.04 541.5 442C574 381 638.5 403.5 612 404.5C591.72 405.265 587.21 427.749 587.44 440.349C591.956 438.437 605.71 434.596 638.5 427.5C705.5 413 710.5 503 722.5 494C732.1 486.8 725.167 446.667 720.5 427.5C739.3 427.5 785.667 464.5 806.5 483C806.5 418 858.5 409.5 846.5 420C834.5 430.5 833 489.5 858.5 474.5C878.9 462.5 917 475.167 933.5 483C937.898 461.374 971.464 448.173 991.796 443.166C993.44 442.412 995.174 442 997 442C995.397 442.321 993.651 442.709 991.796 443.166C979.031 449.02 971.715 475.473 969.5 489.5C979.9 471.1 1005.5 471.833 1017 474.5C1016.2 491.3 1025 506.833 1029.5 512.5V465.5L1072.5 512.5C1080.5 505.7 1075.83 478.333 1072.5 465.5C1090.1 475.1 1108.5 500.833 1115.5 512.5C1131.1 493.7 1148.67 504.667 1155.5 512.5C1146.3 512.5 1143 528.167 1142.5 536C1181 538 1177.5 543 1215.5 543C1253.5 543 1306 521 1308.5 512.5C1310.5 505.7 1302 470.333 1297.5 453.5L1348.5 489.5C1353.3 471.1 1373.5 454.833 1383 449C1393.8 459.8 1390.5 480.5 1387.5 489.5C1384.5 493.333 1381.3 498.7 1392.5 489.5C1403.7 480.3 1421.5 485.667 1429 489.5L1409.5 442L1457.5 465.5C1449.9 437.1 1471.33 428.333 1483 427.5C1469.4 429.5 1477.33 459.667 1483 474.5C1504.67 456.667 1554.9 427.5 1582.5 453.5C1617 486 1731.5 543 1762 528C1786.4 516 1779.83 465.667 1773.5 442C1801.1 446.8 1810.33 475.667 1811.5 489.5C1803.83 511.167 1795.4 541.5 1823 489.5C1857.5 424.5 1911 501 1893.5 489.5C1876 478 1872.5 474.5 1857.5 512.5C1842.5 550.5 1920.5 562 1947 543C1968.2 527.8 1955.83 491 1947 474.5C1966.6 474.5 1976.83 492.167 1979.5 501C1979.5 453.4 2012.5 449.5 2029 453.5C2007.4 450.7 2005 502 2006.5 528Z" fill="url(#paint0_linear_22_90)"/>
<path d="M1024.11 684.935L1083.2 650.089V1148.9H-823V929.502C-806.508 843.677 -609.978 751.4 -534.389 783.665C-458.801 815.93 -445.974 686.871 -407.034 604.273C-377.542 541.714 -300.555 484.63 -260.043 460.292C-257.862 458.593 -255.699 457.307 -253.567 456.5C-255.6 457.657 -257.764 458.923 -260.043 460.292C-282.98 478.163 -307.842 541.73 -318.161 573.944C-288.383 495.218 -229.287 524.256 -253.567 525.547C-272.148 526.534 -276.28 555.551 -276.069 571.813C-271.932 569.345 -259.33 564.389 -229.287 555.23C-167.9 536.517 -163.319 652.67 -152.324 641.055C-143.528 631.762 -149.881 579.967 -154.157 555.23C-136.932 555.23 -94.4493 602.982 -75.3613 626.858C-75.3613 542.97 -27.7178 532 -38.7125 545.551C-49.7072 559.102 -51.0815 635.247 -27.7178 615.888C-9.02684 600.401 25.8813 616.748 40.999 626.858C45.029 598.947 75.7822 581.91 94.4111 575.449C95.9174 574.476 97.5065 573.944 99.1792 573.944C97.7105 574.358 96.1113 574.859 94.4111 575.449C82.7155 583.004 76.0122 617.144 73.983 635.247C83.5118 611.5 106.967 612.446 117.504 615.888C116.771 637.57 124.833 657.617 128.956 664.93V604.273L168.354 664.93C175.684 656.154 171.408 620.835 168.354 604.273C184.479 616.662 201.338 649.874 207.752 664.93C222.045 640.667 238.14 654.821 244.401 664.93C235.971 664.93 232.948 685.15 232.49 695.259C267.764 697.841 264.557 704.294 299.374 704.294C334.19 704.294 382.292 675.901 384.583 664.93C386.415 656.154 378.627 610.511 374.504 588.786L421.232 635.247C425.63 611.5 444.137 590.506 452.841 582.978C462.737 596.916 459.713 623.632 456.965 635.247C454.216 640.194 451.284 647.12 461.546 635.247C471.807 623.373 488.116 630.3 494.988 635.247L477.121 573.944L521.1 604.273C514.137 567.62 533.775 556.306 544.464 555.23C532.004 557.811 539.272 596.744 544.464 615.888C564.316 592.872 610.341 555.23 635.628 588.786C667.238 630.73 772.146 704.294 800.091 684.935C822.446 669.448 816.43 604.488 810.627 573.944C835.915 580.139 844.375 617.394 845.444 635.247C838.42 663.21 830.693 702.358 855.981 635.247C887.59 551.358 936.608 650.089 920.574 635.247C904.541 620.405 901.334 615.888 887.59 664.93C873.847 713.973 945.313 728.815 969.592 704.294C989.016 684.677 977.686 637.183 969.592 615.888C987.55 615.888 996.927 638.688 999.37 650.089C999.37 588.657 1029.61 583.623 1044.72 588.786C1024.93 585.172 1022.73 651.379 1024.11 684.935Z" fill="url(#paint1_linear_22_90)"/>
<path d="M2480.9 767.532L2540 732.686V1231.5H633.796V1012.1C650.288 926.275 846.818 833.998 922.406 866.263C997.995 898.527 1010.82 769.468 1049.76 686.871C1079.25 624.312 1156.24 567.228 1196.75 542.89C1198.93 541.191 1201.1 539.905 1203.23 539.098C1201.2 540.255 1199.03 541.52 1196.75 542.89C1173.82 560.761 1148.95 624.328 1138.64 656.542C1168.41 577.816 1227.51 606.854 1203.23 608.144C1184.65 609.132 1180.52 638.149 1180.73 654.411C1184.86 651.943 1197.47 646.987 1227.51 637.828C1288.9 619.115 1293.48 735.268 1304.47 723.652C1313.27 714.36 1306.92 662.564 1302.64 637.828C1319.86 637.828 1362.35 685.58 1381.43 709.456C1381.43 625.567 1429.08 614.597 1418.08 628.149C1407.09 641.7 1405.71 717.845 1429.08 698.486C1447.77 682.999 1482.68 699.346 1497.79 709.456C1501.83 681.545 1532.58 664.508 1551.21 658.047C1552.71 657.074 1554.3 656.542 1555.98 656.542C1554.51 656.955 1552.91 657.457 1551.21 658.047C1539.51 665.602 1532.81 699.742 1530.78 717.845C1540.31 694.098 1563.76 695.044 1574.3 698.486C1573.57 720.168 1581.63 740.215 1585.75 747.528V686.871L1625.15 747.528C1632.48 738.752 1628.2 703.433 1625.15 686.871C1641.28 699.26 1658.13 732.471 1664.55 747.528C1678.84 723.265 1694.94 737.419 1701.2 747.528C1692.77 747.528 1689.74 767.748 1689.29 777.857C1724.56 780.438 1721.35 786.891 1756.17 786.891C1790.99 786.891 1839.09 758.498 1841.38 747.528C1843.21 738.752 1835.42 693.108 1831.3 671.383L1878.03 717.845C1882.43 694.098 1900.93 673.104 1909.64 665.576C1919.53 679.514 1916.51 706.229 1913.76 717.845C1911.01 722.792 1908.08 729.718 1918.34 717.845C1928.6 705.971 1944.91 712.897 1951.78 717.845L1933.92 656.542L1977.9 686.871C1970.93 650.218 1990.57 638.904 2001.26 637.828C1988.8 640.409 1996.07 679.342 2001.26 698.486C2021.11 675.47 2067.14 637.828 2092.42 671.383C2124.03 713.328 2228.94 786.891 2256.89 767.532C2279.24 752.045 2273.23 687.086 2267.42 656.542C2292.71 662.736 2301.17 699.992 2302.24 717.845C2295.22 745.808 2287.49 784.955 2312.78 717.845C2344.39 633.956 2393.4 732.686 2377.37 717.845C2361.34 703.003 2358.13 698.486 2344.39 747.528C2330.64 796.571 2402.11 811.413 2426.39 786.891C2445.81 767.274 2434.48 719.781 2426.39 698.486C2444.35 698.486 2453.72 721.286 2456.17 732.686C2456.17 671.254 2486.4 666.221 2501.52 671.383C2481.73 667.77 2479.53 733.977 2480.9 767.532Z" fill="url(#paint2_linear_22_90)"/>
<path d="M1970.5 883.53L2061.5 861.03V971.53H-17.5L-29 768.03C-12.3334 806.03 18.1999 874.13 6.99995 842.53C-7.00005 803.03 84.5002 741.03 60.5002 768.03C41.3002 789.63 45.1668 826.697 49.5002 842.53C69.9002 821.73 109.667 820.863 127 823.03C124.6 761.03 179.667 742.53 207.5 741.03C172.3 776.23 213.167 810.363 238 823.03L251.5 801.53L286.5 823.03L271 751.03L347 810.53C376.2 781.33 328.833 752.03 301.5 741.03C348.7 733.03 389.167 780.363 403.5 805.03L497 728.53L486.5 768.03C523.7 704.83 591.333 730.363 620.5 751.03C556 768.03 630 837.03 629 823.03C628.2 811.83 657.667 791.03 672.5 782.03C680.9 793.23 692 830.03 696.5 847.03C708.1 822.63 738.333 820.863 752 823.03L733 782.03L802 810.53C802.8 788.93 826.667 773.197 838.5 768.03C855.7 780.03 884.333 822.697 896.5 842.53L918 810.53L951 842.53C949 759.33 1029.17 740.197 1069.5 741.03C1038 757.53 1030 833.53 1039 801.53C1048 769.53 1168 750.03 1148 760.53C1128 771.03 1083 853.03 1101 823.03C1119 793.03 1219.5 760.53 1198 773.03C1180.8 783.03 1180.83 810.53 1183 823.03C1210.5 785.03 1277 845.53 1253 823.03C1233.8 805.03 1245 788.197 1253 782.03C1259 811.23 1293.83 813.196 1310.5 810.53C1299.7 781.33 1334.33 765.03 1353 760.53C1345.8 782.13 1350 802.863 1353 810.53C1385 760.03 1459 773.03 1441 773.03C1423 773.03 1394 823.03 1424.5 810.53C1448.9 800.53 1495.33 814.697 1515.5 823.03C1521.5 799.03 1496.67 785.697 1483.5 782.03C1513.9 773.63 1549.83 797.53 1564 810.53C1555.6 788.53 1567.5 776.363 1574.5 773.03L1586.5 823.03C1591.3 792.63 1634.17 777.03 1655 773.03C1646.6 793.83 1658.5 815.03 1665.5 823.03C1681.1 803.83 1727.67 794.697 1749 792.53V870.03L1794.5 810.53L1782.5 870.03L1873.5 823.03L1850.5 870.03L1934 823.03L1897.5 883.53C1937 859.197 2012.1 813.03 1996.5 823.03C1980.9 833.03 1972.67 867.53 1970.5 883.53Z" fill="url(#paint3_linear_22_90)"/>
<path d="M176 296.003L163.292 118.548L176 -67.9057C125.168 -68.5722 12.9451 -66.0062 -29.2849 -50.4101C-82.0725 -30.915 -160.276 25.071 -113.843 25.071H-29.2849C-56.2652 61.4619 -56.1675 155.872 -52.7461 198.528C-16.6964 183.12 4.14465 149.634 14.8073 121.286C5.32829 184.326 23.7579 268.974 36.2107 309C68.2509 290.095 88.64 210.619 96.154 166.332C104.868 207.436 150.258 267.044 176 296.003Z" fill="#294634"/>
<path d="M422.227 -83.2284C488.704 -110.334 517.796 -172.87 524.032 -200.749L344.569 -64.6179L191.014 24.6843L170.062 125.856L257.444 59.5724C259.216 79.4704 301.565 269.947 319.975 294.217C338.385 318.487 320.726 184.627 326.697 186.97L311.155 34.7612L400.305 209.854L352.498 3.40115C378.669 37.9027 430.331 94.3016 471.25 179.467C479.446 120.021 413.975 23.3037 380.216 -17.6244L541.35 73.8134L389.458 -40.566L525.27 -50.8101L422.227 -83.2284Z" fill="#294634"/>
<path d="M304 408.5C342.8 524.5 390.834 801.5 410 925.5L67 959.5C80 903.167 106.9 772.1 110.5 698.5C114.1 624.9 22 609.833 -24.5 611.5L-58.5 302.5C18.8333 404 171.6 574.1 164 442.5C154.5 278 101 259 67 206C39.8 163.6 55.6666 1.33334 67 -74.5L304 -31C294.334 4.5 272.1 89 260.5 143C246 210.5 255.5 263.5 304 408.5Z" fill="#233328"/>
<path d="M2071 969.768C1327 821.859 445 912.86 -5 948.124V1357.36H2071V969.768Z" fill="#4B6A41"/>
<path d="M1235.5 931.5C618.7 900.7 121.833 1044.33 -49.5 1120V1514H1968L2208 1244C2140.83 1152.67 1852.3 962.3 1235.5 931.5Z" fill="#4E8D56"/>
<path opacity="0.5" d="M1833.5 1162.5C1856.5 1128 2027.5 1122 2041 1120C2029.5 1066.83 2000 977.4 1974 1045C1948 1112.6 1507.17 1159.17 1290 1174L1421 1097L1010 1120L1269 1145L1186.5 1200.5C1367 1267.5 1810.5 1197 1833.5 1162.5Z" fill="#4B6A41"/>
<path opacity="0.5" d="M418.5 1295.86C395.5 1330.36 224.5 1336.36 211 1338.36C222.5 1391.53 252 1480.96 278 1413.36C304 1345.76 744.833 1299.19 962 1284.36L831 1361.36L1242 1338.36L983 1313.36L1065.5 1257.86C885 1190.86 441.5 1261.36 418.5 1295.86Z" fill="#4B6A41"/>
<path opacity="0.5" d="M1303 1044.5C1399.83 1035.17 1605.8 1024.7 1655 1057.5C1582.67 1072 1411 1089.7 1303 1044.5Z" fill="#9BDA7E"/>
<path opacity="0.5" d="M1339 1047.85C1400.07 1041.99 1529.97 1035.42 1561 1056.01C1515.38 1065.11 1407.11 1076.22 1339 1047.85Z" fill="#9BDA7E"/>
<path opacity="0.5" d="M392 1017.26C466.276 1007.98 624.261 997.579 662 1030.18C606.517 1044.59 474.841 1062.18 392 1017.26Z" fill="#9BDA7E"/>
<path opacity="0.5" d="M458 1020.82C514.119 1013.99 633.486 1006.32 662 1030.34C620.08 1040.96 520.591 1053.92 458 1020.82Z" fill="#9BDA7E"/>
<path opacity="0.5" d="M956 993.628C1000.57 988.991 1095.36 983.79 1118 1000.09C1084.71 1007.29 1005.7 1016.09 956 993.628Z" fill="#9BDA7E"/>
<path opacity="0.5" d="M997 995.167C1028.36 991.994 1095.07 988.435 1111 999.587C1087.57 1004.52 1031.98 1010.53 997 995.167Z" fill="#9BDA7E"/>
<path opacity="0.5" d="M1242 1142.92C1032.93 1159.03 588.227 1177.1 482 1120.48C638.174 1095.45 1008.82 1064.9 1242 1142.92Z" fill="#9BDA7E"/>
<path opacity="0.5" d="M1168.22 1121.36C1034.17 1103.91 748.482 1077.08 678.163 1109.39C777.857 1130.69 1015.44 1162.89 1168.22 1121.36Z" fill="#9BDA7E"/>
<path d="M1465.5 -42.5L1644.5 426.5L1712.5 362.5L1546.5 -42.5H1465.5Z" fill="#233328"/>
<path d="M1774.5 339.5L1787.5 162L1774.5 -24.5C1826.5 -25.1667 1941.3 -22.6 1984.5 -7.00001C2038.5 12.5 2118.5 68.5 2071 68.5H1984.5C2012.1 104.9 2012 199.333 2008.5 242C1971.62 226.588 1950.3 193.094 1939.4 164.739C1949.09 227.794 1930.24 312.464 1917.5 352.5C1884.72 333.591 1863.87 254.095 1856.18 209.796C1847.27 250.91 1800.83 310.534 1774.5 339.5Z" fill="#294634"/>
<path d="M1657 673.5L2096 1257.5L2283.5 1014.5C2175.5 900.833 1944.2 655.6 1883 584C1821.8 512.4 1857.5 119.5 1883 -68H1631.5C1640 111 1631.5 426.5 1631.5 528.5C1631.5 580.287 1640 645 1657 673.5Z" fill="#233328"/>
<path d="M915.93 1329.72C846.04 1328.65 787.122 1350.52 766.4 1361.59L990.277 1336.73L1166.64 1327.44L1240.46 1286.94L1131.45 1299.04C1141.11 1289.92 1212.74 1197.64 1211.15 1183.33C1209.56 1169.02 1149.26 1231.5 1145.65 1229.3L1073.35 1299.46L1097.84 1204.79L1021.78 1305.19C1019.52 1284.85 1008.51 1249.85 1022.44 1204.28C982.454 1228.89 982.286 1284.36 987.2 1309.03L905.649 1237.13L966.764 1317.33L849.212 1295.24L915.93 1329.72Z" fill="#161115"/>
<path d="M1628.5 909.5L1288 899.5L1222 878.5H1315C1306 867.167 1288 839.4 1288 819C1288 798.6 1293.67 786.167 1296.5 782.5L1364 870L1334.5 740.5L1408 870C1436.4 863.2 1413.17 772.5 1398 728C1434 756.4 1439.33 834.5 1437.5 870L1499.5 756L1455.5 878.5L1552.5 829L1499.5 888C1558.3 875.558 1610 897.149 1628.5 909.5Z" fill="url(#paint4_linear_22_90)"/>
<path d="M323.072 917.781C268.469 913.61 223.394 936.375 207.681 948.279L381.403 928.988L518.688 925.67L574.612 882.035L490.025 891.428C497.188 881.31 549.231 777.842 547.39 761.267C545.549 744.692 501.098 814.251 498.19 811.558L444.691 889.47L459.838 781.271L404.671 893.914C402.054 870.352 391.996 829.52 400.954 777.528C370.773 804.239 372.969 868.235 377.839 896.894L311.162 810.53L362.235 905.618L269.543 875.196L323.072 917.781Z" fill="url(#paint5_linear_22_90)"/>
<path d="M216 1120C144 1034.4 29 1084.33 -19.5 1120V1390H734.5C717.333 1367.17 667.6 1311.2 606 1270C529 1218.5 306 1227 216 1120Z" fill="#7E5134"/>
<path d="M576 1265.5C603.6 1265.5 644.5 1299.83 661.5 1317L-41.5 1360.5C-38 1299.33 -28.1 1166.4 -16.5 1124C-4.9 1081.6 83.3333 1073 126 1074V1098.5L70.5 1150V1235.5H152L186 1291.5L271.5 1265.5H357.5C387.5 1282.67 473.2 1306.7 576 1265.5Z" fill="#453128"/>
<path d="M228 1182.5L166.5 1175L228 1219H255.5L228 1182.5Z" fill="#453128"/>
<path d="M1757.5 1001C1851.1 1032.2 2084.83 1218.67 2190 1308L2229 1377.5L1757.5 1001Z" fill="#0D1811"/>
<path d="M1664 1279.23C1761.83 1266.46 2053.5 1332.26 2187.11 1366.75L2252.53 1412.27L1664 1279.23Z" fill="#0D1811"/>
<path d="M1826.5 1135C1902.5 1138.6 2100.5 1286.5 2190 1360L2229 1425L2024.95 1304.69C1936.62 1252.61 1840.11 1215.86 1739.51 1196.02L1671 1182.5C1691.17 1165.17 1750.5 1131.4 1826.5 1135Z" fill="#0D1811"/>
<path d="M0 54.6289C6.5 63.1289 492.5 386.129 1046.5 76.1289C1489.7 -171.871 1410.83 -86.5377 1316 -12.8711C1405.83 64.9622 1685.3 215.929 2084.5 197.129" stroke="#111215" stroke-width="7"/>
<path d="M156.5 306.5C144.5 285.5 142.5 133.5 139 129L348.5 194C317.167 190.833 252.8 184 246 182C237.5 179.5 246 198.5 234 219.5C222 240.5 227.5 206.5 216.5 198.5C207.7 192.1 204.833 313.167 204.5 374.5C204.5 344.167 201.9 279.2 191.5 262C178.5 240.5 184 182.5 173 176C164.2 170.8 161.333 154.833 161 147.5C143 162.3 150.5 259.667 156.5 306.5Z" fill="#111215"/>
<path d="M1183.94 226.46C1162.72 194.484 1159.19 -36.9581 1153 -43.81L1522.56 -43.81C1525.88 -44.0586 1529.03 -44.068 1532 -43.81L1522.56 -43.81C1463.81 -39.4135 1353.57 39.7726 1342.19 36.8903C1327.16 33.0837 1342.19 62.014 1320.97 93.9896C1299.75 125.965 1309.48 74.1952 1290.03 62.014C1274.47 52.2691 1269.4 236.611 1268.81 330C1268.81 283.813 1264.21 184.892 1245.83 158.702C1222.84 125.965 1232.56 37.6516 1213.12 27.7544C1197.56 19.8367 1192.49 -4.47493 1191.9 -15.641C1160.07 6.89418 1173.33 155.149 1183.94 226.46Z" fill="#111215"/>
<path d="M687.407 255.236V202L727.907 196.5C727.907 207.333 726.307 226.2 719.907 215C711.907 201 704.407 351.5 700.407 347C696.407 342.5 695.407 244 690.407 248.5C688.78 249.965 687.87 252.473 687.407 255.236V266.5C687.012 263.831 686.734 259.263 687.407 255.236Z" fill="#111215"/>
<path d="M945.907 189V127L1006.91 94V100C1017.91 109.5 994.907 177 995.907 157.5C996.907 138 989.907 127 980.407 123C972.807 119.8 967.241 217.333 965.407 266.5C963.741 265.5 959.607 262.8 956.407 260C953.207 257.2 952.407 205.833 952.407 180.5L945.907 189Z" fill="#111215"/>
<path d="M1453.65 109C1448.05 103 1448.65 83.1667 1449.65 74L1522.15 109C1524.49 125.833 1527.75 161.2 1522.15 168C1515.15 176.5 1517.15 212 1516.65 219C1516.15 226 1507.65 246.5 1504.65 239C1501.65 231.5 1495.15 118.5 1490.15 103.5C1485.15 88.5 1480.15 119 1476.65 128.5C1473.15 138 1474.65 157.5 1469.15 153C1463.65 148.5 1460.65 116.5 1453.65 109Z" fill="#111215"/>
<path d="M1746.65 202.5C1739.05 202.5 1737.17 179.167 1737.5 171.5L1779.5 181C1781.67 199.333 1786.85 241.7 1785.65 252.5C1784.15 266 1781.65 236 1775.65 225C1769.65 214 1771.15 335.5 1766.65 329.5C1762.15 323.5 1756.15 202.5 1746.65 202.5Z" fill="#111215"/>
<path d="M48.4523 457C55.4523 470.5 69.6523 500.1 70.4523 510.5L53.4523 492C55.4523 510.667 59.4523 548.5 59.4523 550.5C59.4523 552.982 45.6535 508.154 45.4544 505.55C45.4874 507.912 45.9074 553.582 47.5857 568.219C48.5462 571.613 48.9688 573.327 48.4523 572.5C48.1316 571.987 47.8438 570.47 47.5857 568.219C43.8976 555.188 32.2787 517.384 35.4523 503.5L24.4524 539C20.119 526.667 13.3524 500 20.9524 492C30.4524 482 36.9521 476.5 37.9521 472C38.7521 468.4 45.2855 460.5 48.4523 457Z" fill="#111215"/>
<path d="M73.9521 259.5C68.4521 254.5 71.9521 236 67.4521 224C63.9795 214.74 54.645 206.906 49.9497 203.82L45.9521 198.5C35.9521 200.167 15.5521 204.5 13.9521 208.5C11.9521 213.5 8.45206 246 13.9521 230.5C18.3521 218.1 34.1187 210.667 41.4521 208.5C38.6187 213.667 31.2521 227.2 24.4521 240C15.9521 256 36.9521 273.5 34.4521 268.5C31.9521 263.5 31.9521 261 36.9521 251C40.9521 243 46.9521 226.667 49.4521 219.5C52.9521 223.667 59.4521 233.6 57.4521 240C54.9521 248 79.4521 264.5 73.9521 259.5Z" fill="#111215"/>
<path d="M63.4521 76C61.4521 64.5 51.4521 45 49.9521 44C48.4521 47.6667 46.3521 57.6 49.9521 68C53.5521 78.4 60.4521 77.6667 63.4521 76Z" fill="#111215"/>
<path d="M69.4521 57.5C65.0521 53.1 53.6188 34.3333 48.4521 25.5V28.5C48.4521 37.3 62.4521 51.5 69.4521 57.5Z" fill="#111215"/>
<path d="M27.4521 38.5C35.0521 37.3 42.2855 27.6667 44.9521 23C46.6188 26.7643 48.9521 35.8343 44.9521 42C40.9521 48.1657 21.2855 42.2357 11.9521 38.5C13.9521 39 19.8521 39.7 27.4521 38.5Z" fill="#111215"/>
<path d="M45.9521 -1V493" stroke="#111215" stroke-width="8"/>
<path d="M513.452 392C520.452 405.5 534.652 435.1 535.452 445.5L518.452 427C520.452 445.667 524.452 483.5 524.452 485.5C524.452 487.982 510.654 443.154 510.454 440.55C510.487 442.912 510.907 488.582 512.586 503.219C513.546 506.613 513.969 508.327 513.452 507.5C513.132 506.987 512.844 505.47 512.586 503.219C508.898 490.188 497.279 452.384 500.452 438.5L489.452 474C485.119 461.667 478.352 435 485.952 427C495.452 417 501.952 411.5 502.952 407C503.752 403.4 510.286 395.5 513.452 392Z" fill="#111215"/>
<path d="M538.952 194.5C533.452 189.5 536.952 171 532.452 159C528.979 149.74 519.645 141.906 514.95 138.82L510.952 133.5C500.952 135.167 480.552 139.5 478.952 143.5C476.952 148.5 473.452 181 478.952 165.5C483.352 153.1 499.119 145.667 506.452 143.5C503.619 148.667 496.252 162.2 489.452 175C480.952 191 501.952 208.5 499.452 203.5C496.952 198.5 496.952 196 501.952 186C505.952 178 511.952 161.667 514.452 154.5C517.952 158.667 524.452 168.6 522.452 175C519.952 183 544.452 199.5 538.952 194.5Z" fill="#111215"/>
<path d="M528.452 11C526.452 -0.499996 516.452 -20 514.952 -21C513.452 -17.3333 511.352 -7.39999 514.952 3C518.552 13.4 525.452 12.6667 528.452 11Z" fill="#111215"/>
<path d="M534.452 -7.5C530.052 -11.9 518.619 -30.6667 513.452 -39.5V-36.5C513.452 -27.7 527.452 -13.5 534.452 -7.5Z" fill="#111215"/>
<path d="M492.452 -26.5C500.052 -27.7 507.285 -37.3333 509.952 -42C511.619 -38.2357 513.952 -29.1657 509.952 -23C505.952 -16.8343 486.285 -22.7643 476.952 -26.5C478.952 -26 484.852 -25.3 492.452 -26.5Z" fill="#111215"/>
<path d="M510.952 -66V428" stroke="#111215" stroke-width="8"/>
<path d="M1949.45 457C1956.45 470.5 1970.65 500.1 1971.45 510.5L1954.45 492C1956.45 510.667 1960.45 548.5 1960.45 550.5C1960.45 552.982 1946.65 508.154 1946.45 505.55C1946.49 507.912 1946.91 553.582 1948.59 568.219C1949.55 571.613 1949.97 573.327 1949.45 572.5C1949.13 571.987 1948.84 570.47 1948.59 568.219C1944.9 555.188 1933.28 517.384 1936.45 503.5L1925.45 539C1921.12 526.667 1914.35 500 1921.95 492C1931.45 482 1937.95 476.5 1938.95 472C1939.75 468.4 1946.29 460.5 1949.45 457Z" fill="#111215"/>
<path d="M1974.95 259.5C1969.45 254.5 1972.95 236 1968.45 224C1964.98 214.74 1955.65 206.906 1950.95 203.82L1946.95 198.5C1936.95 200.167 1916.55 204.5 1914.95 208.5C1912.95 213.5 1909.45 246 1914.95 230.5C1919.35 218.1 1935.12 210.667 1942.45 208.5C1939.62 213.667 1932.25 227.2 1925.45 240C1916.95 256 1937.95 273.5 1935.45 268.5C1932.95 263.5 1932.95 261 1937.95 251C1941.95 243 1947.95 226.667 1950.45 219.5C1953.95 223.667 1960.45 233.6 1958.45 240C1955.95 248 1980.45 264.5 1974.95 259.5Z" fill="#111215"/>
<path d="M1964.45 76C1962.45 64.5 1952.45 45 1950.95 44C1949.45 47.6667 1947.35 57.6 1950.95 68C1954.55 78.4 1961.45 77.6667 1964.45 76Z" fill="#111215"/>
<path d="M1970.45 57.5C1966.05 53.1 1954.62 34.3333 1949.45 25.5V28.5C1949.45 37.3 1963.45 51.5 1970.45 57.5Z" fill="#111215"/>
<path d="M1928.45 38.5C1936.05 37.3 1943.29 27.6667 1945.95 23C1947.62 26.7643 1949.95 35.8343 1945.95 42C1941.95 48.1657 1922.29 42.2357 1912.95 38.5C1914.95 39 1920.85 39.7 1928.45 38.5Z" fill="#111215"/>
<path d="M1946.95 -1V493" stroke="#111215" stroke-width="8"/>
</g>
<defs>
<linearGradient id="paint0_linear_22_90" x1="1030.75" y1="351" x2="1030.75" y2="887.5" gradientUnits="userSpaceOnUse">
<stop stop-color="#203F33"/>
<stop offset="0.560417" stop-color="#191F1D"/>
<stop offset="1" stop-color="#171F1C"/>
</linearGradient>
<linearGradient id="paint1_linear_22_90" x1="858.5" y1="456.5" x2="858.5" y2="1231.5" gradientUnits="userSpaceOnUse">
<stop stop-color="#375637"/>
<stop offset="0.369792" stop-color="#294829"/>
<stop offset="0.70137" stop-color="#192719"/>
</linearGradient>
<linearGradient id="paint2_linear_22_90" x1="858.5" y1="456.5" x2="858.5" y2="1231.5" gradientUnits="userSpaceOnUse">
<stop stop-color="#375637"/>
<stop offset="0.369792" stop-color="#294829"/>
<stop offset="0.70137" stop-color="#192719"/>
</linearGradient>
<linearGradient id="paint3_linear_22_90" x1="1016.25" y1="728" x2="1016.25" y2="971.53" gradientUnits="userSpaceOnUse">
<stop stop-color="#3F623D"/>
<stop offset="1" stop-color="#52B34D"/>
</linearGradient>
<linearGradient id="paint4_linear_22_90" x1="1425.25" y1="728" x2="1425.25" y2="909.5" gradientUnits="userSpaceOnUse">
<stop stop-color="#8AA041"/>
<stop offset="1" stop-color="#7B922B"/>
</linearGradient>
<linearGradient id="paint5_linear_22_90" x1="375.864" y1="777.528" x2="393.853" y2="939.532" gradientUnits="userSpaceOnUse">
<stop stop-color="#8AA041"/>
<stop offset="1" stop-color="#7B922B"/>
</linearGradient>
<clipPath id="clip0_22_90">
<rect width="2062" height="1319" fill="white"/>
</clipPath>
</defs>
</svg>
