<svg width="2062" height="1319" viewBox="0 0 2062 1319" fill="none" xmlns="http://www.w3.org/2000/svg">
<g clip-path="url(#clip0_23_324)">
<rect width="2062" height="1319" fill="white"/>
<rect width="2062" height="1319" fill="#638D5F"/>
<path d="M1964.5 1121.31C2032 880.815 1856.5 -147.356 1834 -158.287L1870 -267.603C2053.6 121.56 2072.5 798.626 2059 1088.51L1964.5 1121.31Z" fill="#436648" fill-opacity="0.5"/>
<path d="M1348 -234.808L1375 1033.86H1302.5L1257.5 -234.808H1348Z" fill="#436648" fill-opacity="0.5"/>
<path d="M1203.5 382.823C1203.5 435.294 1098.5 798.626 1046 973.733L938 1028.39C974 891.746 1061.3 594.287 1122.5 497.604C1183.7 400.921 1148 -5.44858 1122.5 -196.548H1203.5V175.124V382.823Z" fill="#436648" fill-opacity="0.5"/>
<path d="M857 333.631C831.8 477.927 867.5 886.078 888.5 1072.12L762.499 1170.5V437.481L672.499 213.384C651.499 162.371 614.9 43.9457 636.5 -21.6434C658.1 -87.2326 645.5 -136.424 636.5 -152.822L694.999 -103.63C685.999 -56.2599 668.899 55.9704 672.499 125.932C676.099 195.894 733.999 260.754 762.499 284.439L857 -103.63H946.999C927.499 -17.9996 882.2 189.335 857 333.631Z" fill="#436648" fill-opacity="0.5"/>
<path d="M312.5 1121.31C366.5 1007.93 317 -0.558868 312.5 -57.2471L227 -139.13L344 -284C351.5 -235.71 372.8 -82.4419 398 144.311C423.2 371.064 450.5 843.932 461 1052.02L312.5 1121.31Z" fill="#436648" fill-opacity="0.5"/>
<path d="M1754.54 1089C1693.62 975.648 1749.46 -32.621 1754.54 -89.2968L1851 -171.162L1719 -316C1710.54 -267.721 1686.51 -114.486 1658.08 112.217C1629.65 338.92 1598.85 811.685 1587 1019.73L1754.54 1089Z" fill="#436648" fill-opacity="0.5"/>
<path d="M73.9999 891.746C30.7999 782.431 70.9999 186.258 96.4999 -98.1641L29 -147.356V1088.51H137C134 1068.47 117.2 1001.06 73.9999 891.746Z" fill="#436648" fill-opacity="0.5"/>
<path d="M2000.5 1019L2065 992V1378.5H-15.5V1208.5C2.5 1142 217 1070.5 299.5 1095.5C382 1120.5 396 1020.5 438.5 956.5C470.689 908.027 554.715 863.796 598.932 844.938C601.312 843.622 603.673 842.625 606 842C603.781 842.897 601.419 843.877 598.932 844.938C573.897 858.785 546.763 908.04 535.5 933C568 872 632.5 894.5 606 895.5C585.72 896.265 581.21 918.749 581.44 931.349C585.956 929.437 599.71 925.596 632.5 918.5C699.5 904 704.5 994 716.5 985C726.1 977.8 719.167 937.667 714.5 918.5C733.3 918.5 779.667 955.5 800.5 974C800.5 909 852.5 900.5 840.5 911C828.5 921.5 827 980.5 852.5 965.5C872.9 953.5 911 966.167 927.5 974C931.898 952.374 965.464 939.173 985.796 934.166C987.44 933.412 989.174 933 991 933C989.397 933.321 987.651 933.709 985.796 934.166C973.031 940.02 965.715 966.473 963.5 980.5C973.9 962.1 999.5 962.833 1011 965.5C1010.2 982.3 1019 997.833 1023.5 1003.5V956.5L1066.5 1003.5C1074.5 996.7 1069.83 969.333 1066.5 956.5C1084.1 966.1 1102.5 991.833 1109.5 1003.5C1125.1 984.7 1142.67 995.667 1149.5 1003.5C1140.3 1003.5 1137 1019.17 1136.5 1027C1175 1029 1171.5 1034 1209.5 1034C1247.5 1034 1300 1012 1302.5 1003.5C1304.5 996.7 1296 961.333 1291.5 944.5L1342.5 980.5C1347.3 962.1 1367.5 945.833 1377 940C1387.8 950.8 1384.5 971.5 1381.5 980.5C1378.5 984.333 1375.3 989.7 1386.5 980.5C1397.7 971.3 1415.5 976.667 1423 980.5L1403.5 933L1451.5 956.5C1443.9 928.1 1465.33 919.333 1477 918.5C1463.4 920.5 1471.33 950.667 1477 965.5C1498.67 947.667 1548.9 918.5 1576.5 944.5C1611 977 1725.5 1034 1756 1019C1780.4 1007 1773.83 956.667 1767.5 933C1795.1 937.8 1804.33 966.667 1805.5 980.5C1797.83 1002.17 1789.4 1032.5 1817 980.5C1851.5 915.5 1905 992 1887.5 980.5C1870 969 1866.5 965.5 1851.5 1003.5C1836.5 1041.5 1914.5 1053 1941 1034C1962.2 1018.8 1949.83 982 1941 965.5C1960.6 965.5 1970.83 983.167 1973.5 992C1973.5 944.4 2006.5 940.5 2023 944.5C2001.4 941.7 1999 993 2000.5 1019Z" fill="url(#paint0_linear_23_324)"/>
<path d="M1018.11 1175.93L1077.2 1141.09V1639.9H-829V1420.5C-812.508 1334.68 -615.978 1242.4 -540.389 1274.66C-464.801 1306.93 -451.974 1177.87 -413.034 1095.27C-383.542 1032.71 -306.555 975.63 -266.043 951.292C-263.862 949.593 -261.699 948.307 -259.567 947.5C-261.6 948.657 -263.764 949.923 -266.043 951.292C-288.98 969.163 -313.842 1032.73 -324.161 1064.94C-294.383 986.218 -235.287 1015.26 -259.567 1016.55C-278.148 1017.53 -282.28 1046.55 -282.069 1062.81C-277.932 1060.35 -265.33 1055.39 -235.287 1046.23C-173.9 1027.52 -169.319 1143.67 -158.324 1132.05C-149.528 1122.76 -155.881 1070.97 -160.157 1046.23C-142.932 1046.23 -100.449 1093.98 -81.3613 1117.86C-81.3613 1033.97 -33.7178 1023 -44.7125 1036.55C-55.7072 1050.1 -57.0815 1126.25 -33.7178 1106.89C-15.0268 1091.4 19.8813 1107.75 34.999 1117.86C39.029 1089.95 69.7822 1072.91 88.4111 1066.45C89.9174 1065.48 91.5065 1064.94 93.1792 1064.94C91.7105 1065.36 90.1113 1065.86 88.4111 1066.45C76.7155 1074 70.0122 1108.14 67.983 1126.25C77.5118 1102.5 100.967 1103.45 111.504 1106.89C110.771 1128.57 118.833 1148.62 122.956 1155.93V1095.27L162.354 1155.93C169.684 1147.15 165.408 1111.84 162.354 1095.27C178.479 1107.66 195.338 1140.87 201.752 1155.93C216.045 1131.67 232.14 1145.82 238.401 1155.93C229.971 1155.93 226.948 1176.15 226.49 1186.26C261.764 1188.84 258.557 1195.29 293.374 1195.29C328.19 1195.29 376.292 1166.9 378.583 1155.93C380.415 1147.15 372.627 1101.51 368.504 1079.79L415.232 1126.25C419.63 1102.5 438.137 1081.51 446.841 1073.98C456.737 1087.92 453.713 1114.63 450.965 1126.25C448.216 1131.19 445.284 1138.12 455.546 1126.25C465.807 1114.37 482.116 1121.3 488.988 1126.25L471.121 1064.94L515.1 1095.27C508.137 1058.62 527.775 1047.31 538.464 1046.23C526.004 1048.81 533.272 1087.74 538.464 1106.89C558.316 1083.87 604.341 1046.23 629.628 1079.79C661.238 1121.73 766.146 1195.29 794.091 1175.93C816.446 1160.45 810.43 1095.49 804.627 1064.94C829.915 1071.14 838.375 1108.39 839.444 1126.25C832.42 1154.21 824.693 1193.36 849.981 1126.25C881.59 1042.36 930.608 1141.09 914.574 1126.25C898.541 1111.41 895.334 1106.89 881.59 1155.93C867.847 1204.97 939.313 1219.81 963.592 1195.29C983.016 1175.68 971.686 1128.18 963.592 1106.89C981.55 1106.89 990.927 1129.69 993.37 1141.09C993.37 1079.66 1023.61 1074.62 1038.72 1079.79C1018.93 1076.17 1016.73 1142.38 1018.11 1175.93Z" fill="url(#paint1_linear_23_324)"/>
<path d="M2474.9 1258.53L2534 1223.69V1722.5H627.796V1503.1C644.288 1417.28 840.818 1325 916.406 1357.26C991.995 1389.53 1004.82 1260.47 1043.76 1177.87C1073.25 1115.31 1150.24 1058.23 1190.75 1033.89C1192.93 1032.19 1195.1 1030.9 1197.23 1030.1C1195.2 1031.25 1193.03 1032.52 1190.75 1033.89C1167.82 1051.76 1142.95 1115.33 1132.64 1147.54C1162.41 1068.82 1221.51 1097.85 1197.23 1099.14C1178.65 1100.13 1174.52 1129.15 1174.73 1145.41C1178.86 1142.94 1191.47 1137.99 1221.51 1128.83C1282.9 1110.11 1287.48 1226.27 1298.47 1214.65C1307.27 1205.36 1300.92 1153.56 1296.64 1128.83C1313.86 1128.83 1356.35 1176.58 1375.43 1200.46C1375.43 1116.57 1423.08 1105.6 1412.08 1119.15C1401.09 1132.7 1399.71 1208.84 1423.08 1189.49C1441.77 1174 1476.68 1190.35 1491.79 1200.46C1495.83 1172.55 1526.58 1155.51 1545.21 1149.05C1546.71 1148.07 1548.3 1147.54 1549.98 1147.54C1548.51 1147.96 1546.91 1148.46 1545.21 1149.05C1533.51 1156.6 1526.81 1190.74 1524.78 1208.84C1534.31 1185.1 1557.76 1186.04 1568.3 1189.49C1567.57 1211.17 1575.63 1231.21 1579.75 1238.53V1177.87L1619.15 1238.53C1626.48 1229.75 1622.2 1194.43 1619.15 1177.87C1635.28 1190.26 1652.13 1223.47 1658.55 1238.53C1672.84 1214.27 1688.94 1228.42 1695.2 1238.53C1686.77 1238.53 1683.74 1258.75 1683.29 1268.86C1718.56 1271.44 1715.35 1277.89 1750.17 1277.89C1784.99 1277.89 1833.09 1249.5 1835.38 1238.53C1837.21 1229.75 1829.42 1184.11 1825.3 1162.38L1872.03 1208.84C1876.43 1185.1 1894.93 1164.1 1903.64 1156.58C1913.53 1170.51 1910.51 1197.23 1907.76 1208.84C1905.01 1213.79 1902.08 1220.72 1912.34 1208.84C1922.6 1196.97 1938.91 1203.9 1945.78 1208.84L1927.92 1147.54L1971.9 1177.87C1964.93 1141.22 1984.57 1129.9 1995.26 1128.83C1982.8 1131.41 1990.07 1170.34 1995.26 1189.49C2015.11 1166.47 2061.14 1128.83 2086.42 1162.38C2118.03 1204.33 2222.94 1277.89 2250.89 1258.53C2273.24 1243.05 2267.23 1178.09 2261.42 1147.54C2286.71 1153.74 2295.17 1190.99 2296.24 1208.84C2289.22 1236.81 2281.49 1275.96 2306.78 1208.84C2338.39 1124.96 2387.4 1223.69 2371.37 1208.84C2355.34 1194 2352.13 1189.49 2338.39 1238.53C2324.64 1287.57 2396.11 1302.41 2420.39 1277.89C2439.81 1258.27 2428.48 1210.78 2420.39 1189.49C2438.35 1189.49 2447.72 1212.29 2450.17 1223.69C2450.17 1162.25 2480.4 1157.22 2495.52 1162.38C2475.73 1158.77 2473.53 1224.98 2474.9 1258.53Z" fill="url(#paint2_linear_23_324)"/>
<path d="M1964.5 1374.53L2055.5 1352.03V1462.53H-23.5L-35 1259.03C-18.3334 1297.03 12.1999 1365.13 0.999947 1333.53C-13.0001 1294.03 78.5002 1232.03 54.5002 1259.03C35.3002 1280.63 39.1668 1317.7 43.5002 1333.53C63.9002 1312.73 103.667 1311.86 121 1314.03C118.6 1252.03 173.667 1233.53 201.5 1232.03C166.3 1267.23 207.167 1301.36 232 1314.03L245.5 1292.53L280.5 1314.03L265 1242.03L341 1301.53C370.2 1272.33 322.833 1243.03 295.5 1232.03C342.7 1224.03 383.167 1271.36 397.5 1296.03L491 1219.53L480.5 1259.03C517.7 1195.83 585.333 1221.36 614.5 1242.03C550 1259.03 624 1328.03 623 1314.03C622.2 1302.83 651.667 1282.03 666.5 1273.03C674.9 1284.23 686 1321.03 690.5 1338.03C702.1 1313.63 732.333 1311.86 746 1314.03L727 1273.03L796 1301.53C796.8 1279.93 820.667 1264.2 832.5 1259.03C849.7 1271.03 878.333 1313.7 890.5 1333.53L912 1301.53L945 1333.53C943 1250.33 1023.17 1231.2 1063.5 1232.03C1032 1248.53 1024 1324.53 1033 1292.53C1042 1260.53 1162 1241.03 1142 1251.53C1122 1262.03 1077 1344.03 1095 1314.03C1113 1284.03 1213.5 1251.53 1192 1264.03C1174.8 1274.03 1174.83 1301.53 1177 1314.03C1204.5 1276.03 1271 1336.53 1247 1314.03C1227.8 1296.03 1239 1279.2 1247 1273.03C1253 1302.23 1287.83 1304.2 1304.5 1301.53C1293.7 1272.33 1328.33 1256.03 1347 1251.53C1339.8 1273.13 1344 1293.86 1347 1301.53C1379 1251.03 1453 1264.03 1435 1264.03C1417 1264.03 1388 1314.03 1418.5 1301.53C1442.9 1291.53 1489.33 1305.7 1509.5 1314.03C1515.5 1290.03 1490.67 1276.7 1477.5 1273.03C1507.9 1264.63 1543.83 1288.53 1558 1301.53C1549.6 1279.53 1561.5 1267.36 1568.5 1264.03L1580.5 1314.03C1585.3 1283.63 1628.17 1268.03 1649 1264.03C1640.6 1284.83 1652.5 1306.03 1659.5 1314.03C1675.1 1294.83 1721.67 1285.7 1743 1283.53V1361.03L1788.5 1301.53L1776.5 1361.03L1867.5 1314.03L1844.5 1361.03L1928 1314.03L1891.5 1374.53C1931 1350.2 2006.1 1304.03 1990.5 1314.03C1974.9 1324.03 1966.67 1358.53 1964.5 1374.53Z" fill="url(#paint3_linear_23_324)"/>
<path d="M1604 -81.5L1783 387.5L1851 323.5L1685 -81.5H1604Z" fill="#233328"/>
<path d="M1913 300.5L1926 123L1913 -63.5C1965 -64.1667 2079.8 -61.6 2123 -46C2177 -26.5 2257 29.5 2209.5 29.5H2123C2150.6 65.9 2150.5 160.333 2147 203C2110.12 187.588 2088.8 154.094 2077.9 125.739C2087.59 188.794 2068.74 273.464 2056 313.5C2023.22 294.591 2002.37 215.095 1994.68 170.796C1985.77 211.91 1939.33 271.534 1913 300.5Z" fill="#294634"/>
<path d="M1795.5 634.5L2234.5 1218.5L2422 975.5C2314 861.833 2082.7 616.6 2021.5 545C1960.3 473.4 1996 80.5 2021.5 -107H1770C1778.5 72 1770 387.5 1770 489.5C1770 541.287 1778.5 606 1795.5 634.5Z" fill="#233328"/>
<path d="M430 -81.5L265.88 387.5L203.533 323.5L355.734 -81.5H430Z" fill="#233328"/>
<path d="M146.688 300.5L134.768 123L146.688 -63.5C99.0103 -64.1667 -6.24635 -61.6 -45.8551 -46C-95.3661 -26.5 -168.716 29.5 -125.164 29.5H-45.8551C-71.1607 65.9 -71.069 160.333 -67.86 203C-34.0479 187.588 -14.5005 154.094 -4.49977 125.739C-13.3904 188.794 3.89528 273.464 15.5751 313.5C45.6265 294.591 64.75 215.095 71.7977 170.796C79.9706 211.91 122.544 271.534 146.688 300.5Z" fill="#294634"/>
<path d="M254.419 634.5L-148.087 1218.5L-320 975.5C-220.978 861.833 -8.90643 616.6 47.206 545C103.318 473.4 70.5862 80.5 47.206 -107H277.799C270.005 72 277.799 387.5 277.799 489.5C277.799 541.287 270.005 606 254.419 634.5Z" fill="#233328"/>
<path d="M83 -34.3711C89.5 -25.8711 575.5 297.129 1129.5 -12.8711C1572.7 -260.871 1493.83 -175.538 1399 -101.871C1488.83 -24.0378 1768.3 126.929 2167.5 108.129" stroke="#111215" stroke-width="7"/>
<path d="M239.5 217.5C227.5 196.5 225.5 44.5 222 40L431.5 105C400.167 101.833 335.8 95 329 93C320.5 90.5 329 109.5 317 130.5C305 151.5 310.5 117.5 299.5 109.5C290.7 103.1 287.833 224.167 287.5 285.5C287.5 255.167 284.9 190.2 274.5 173C261.5 151.5 267 93.5 256 87C247.2 81.8 244.333 65.8333 244 58.5C226 73.3 233.5 170.667 239.5 217.5Z" fill="#111215"/>
<path d="M1266.94 137.46C1245.72 105.484 1242.19 -125.958 1236 -132.81L1605.56 -132.81C1608.88 -133.059 1612.03 -133.068 1615 -132.81L1605.56 -132.81C1546.81 -128.414 1436.57 -49.2274 1425.19 -52.1097C1410.16 -55.9163 1425.19 -26.986 1403.97 4.98964C1382.75 36.9652 1392.48 -14.8048 1373.03 -26.986C1357.47 -36.7309 1352.4 147.611 1351.81 241C1351.81 194.813 1347.21 95.8917 1328.83 69.7022C1305.84 36.9652 1315.56 -51.3484 1296.12 -61.2456C1280.56 -69.1633 1275.49 -93.4749 1274.9 -104.641C1243.07 -82.1058 1256.33 66.1493 1266.94 137.46Z" fill="#111215"/>
<path d="M770.407 166.236V113L810.907 107.5C810.907 118.333 809.307 137.2 802.907 126C794.907 112 787.407 262.5 783.407 258C779.407 253.5 778.407 155 773.407 159.5C771.78 160.965 770.87 163.473 770.407 166.236V177.5C770.012 174.831 769.734 170.263 770.407 166.236Z" fill="#111215"/>
<path d="M1028.91 100V38L1089.91 5V11C1100.91 20.5 1077.91 88 1078.91 68.5C1079.91 49 1072.91 38 1063.41 34C1055.81 30.8 1050.24 128.333 1048.41 177.5C1046.74 176.5 1042.61 173.8 1039.41 171C1036.21 168.2 1035.41 116.833 1035.41 91.5L1028.91 100Z" fill="#111215"/>
<path d="M1536.65 20C1531.05 14 1531.65 -5.83333 1532.65 -15L1605.15 20C1607.49 36.8333 1610.75 72.2 1605.15 79C1598.15 87.5 1600.15 123 1599.65 130C1599.15 137 1590.65 157.5 1587.65 150C1584.65 142.5 1578.15 29.5 1573.15 14.5C1568.15 -0.5 1563.15 30 1559.65 39.5C1556.15 49 1557.65 68.5 1552.15 64C1546.65 59.5 1543.65 27.5 1536.65 20Z" fill="#111215"/>
<path d="M1829.65 113.5C1822.05 113.5 1820.17 90.1667 1820.5 82.5L1862.5 92C1864.67 110.333 1869.85 152.7 1868.65 163.5C1867.15 177 1864.65 147 1858.65 136C1852.65 125 1854.15 246.5 1849.65 240.5C1845.15 234.5 1839.15 113.5 1829.65 113.5Z" fill="#111215"/>
<path d="M131.452 368C138.452 381.5 152.652 411.1 153.452 421.5L136.452 403C138.452 421.667 142.452 459.5 142.452 461.5C142.452 463.982 128.654 419.154 128.454 416.55C128.487 418.912 128.907 464.582 130.586 479.219C131.546 482.613 131.969 484.327 131.452 483.5C131.132 482.987 130.844 481.47 130.586 479.219C126.898 466.188 115.279 428.384 118.452 414.5L107.452 450C103.119 437.667 96.3524 411 103.952 403C113.452 393 119.952 387.5 120.952 383C121.752 379.4 128.286 371.5 131.452 368Z" fill="#111215"/>
<path d="M156.952 170.5C151.452 165.5 154.952 147 150.452 135C146.979 125.74 137.645 117.906 132.95 114.82L128.952 109.5C118.952 111.167 98.5521 115.5 96.9521 119.5C94.9521 124.5 91.4521 157 96.9521 141.5C101.352 129.1 117.119 121.667 124.452 119.5C121.619 124.667 114.252 138.2 107.452 151C98.9521 167 119.952 184.5 117.452 179.5C114.952 174.5 114.952 172 119.952 162C123.952 154 129.952 137.667 132.452 130.5C135.952 134.667 142.452 144.6 140.452 151C137.952 159 162.452 175.5 156.952 170.5Z" fill="#111215"/>
<path d="M146.452 -13C144.452 -24.5 134.452 -44 132.952 -45C131.452 -41.3333 129.352 -31.4 132.952 -21C136.552 -10.6 143.452 -11.3333 146.452 -13Z" fill="#111215"/>
<path d="M152.452 -31.5C148.052 -35.9 136.619 -54.6667 131.452 -63.5V-60.5C131.452 -51.7 145.452 -37.5 152.452 -31.5Z" fill="#111215"/>
<path d="M110.452 -50.5C118.052 -51.7 125.285 -61.3333 127.952 -66C129.619 -62.2357 131.952 -53.1657 127.952 -47C123.952 -40.8343 104.285 -46.7643 94.9521 -50.5C96.9521 -50 102.852 -49.3 110.452 -50.5Z" fill="#111215"/>
<path d="M128.952 -90V404" stroke="#111215" stroke-width="8"/>
<path d="M596.452 303C603.452 316.5 617.652 346.1 618.452 356.5L601.452 338C603.452 356.667 607.452 394.5 607.452 396.5C607.452 398.982 593.654 354.154 593.454 351.55C593.487 353.912 593.907 399.582 595.586 414.219C596.546 417.613 596.969 419.327 596.452 418.5C596.132 417.987 595.844 416.47 595.586 414.219C591.898 401.188 580.279 363.384 583.452 349.5L572.452 385C568.119 372.667 561.352 346 568.952 338C578.452 328 584.952 322.5 585.952 318C586.752 314.4 593.286 306.5 596.452 303Z" fill="#111215"/>
<path d="M621.952 105.5C616.452 100.5 619.952 82 615.452 70C611.979 60.7398 602.645 52.9063 597.95 49.8204L593.952 44.5C583.952 46.1667 563.552 50.5 561.952 54.5C559.952 59.5 556.452 92 561.952 76.5C566.352 64.1 582.119 56.6667 589.452 54.5C586.619 59.6667 579.252 73.2 572.452 86C563.952 102 584.952 119.5 582.452 114.5C579.952 109.5 579.952 107 584.952 97C588.952 89 594.952 72.6667 597.452 65.5C600.952 69.6667 607.452 79.6 605.452 86C602.952 94 627.452 110.5 621.952 105.5Z" fill="#111215"/>
<path d="M611.452 -78C609.452 -89.5 599.452 -109 597.952 -110C596.452 -106.333 594.352 -96.4 597.952 -86C601.552 -75.6 608.452 -76.3333 611.452 -78Z" fill="#111215"/>
<path d="M617.452 -96.5C613.052 -100.9 601.619 -119.667 596.452 -128.5V-125.5C596.452 -116.7 610.452 -102.5 617.452 -96.5Z" fill="#111215"/>
<path d="M575.452 -115.5C583.052 -116.7 590.285 -126.333 592.952 -131C594.619 -127.236 596.952 -118.166 592.952 -112C588.952 -105.834 569.285 -111.764 559.952 -115.5C561.952 -115 567.852 -114.3 575.452 -115.5Z" fill="#111215"/>
<path d="M593.952 -155V339" stroke="#111215" stroke-width="8"/>
<path d="M2032.45 368C2039.45 381.5 2053.65 411.1 2054.45 421.5L2037.45 403C2039.45 421.667 2043.45 459.5 2043.45 461.5C2043.45 463.982 2029.65 419.154 2029.45 416.55C2029.49 418.912 2029.91 464.582 2031.59 479.219C2032.55 482.613 2032.97 484.327 2032.45 483.5C2032.13 482.987 2031.84 481.47 2031.59 479.219C2027.9 466.188 2016.28 428.384 2019.45 414.5L2008.45 450C2004.12 437.667 1997.35 411 2004.95 403C2014.45 393 2020.95 387.5 2021.95 383C2022.75 379.4 2029.29 371.5 2032.45 368Z" fill="#111215"/>
<path d="M2057.95 170.5C2052.45 165.5 2055.95 147 2051.45 135C2047.98 125.74 2038.65 117.906 2033.95 114.82L2029.95 109.5C2019.95 111.167 1999.55 115.5 1997.95 119.5C1995.95 124.5 1992.45 157 1997.95 141.5C2002.35 129.1 2018.12 121.667 2025.45 119.5C2022.62 124.667 2015.25 138.2 2008.45 151C1999.95 167 2020.95 184.5 2018.45 179.5C2015.95 174.5 2015.95 172 2020.95 162C2024.95 154 2030.95 137.667 2033.45 130.5C2036.95 134.667 2043.45 144.6 2041.45 151C2038.95 159 2063.45 175.5 2057.95 170.5Z" fill="#111215"/>
<path d="M2047.45 -13C2045.45 -24.5 2035.45 -44 2033.95 -45C2032.45 -41.3333 2030.35 -31.4 2033.95 -21C2037.55 -10.6 2044.45 -11.3333 2047.45 -13Z" fill="#111215"/>
<path d="M2053.45 -31.5C2049.05 -35.9 2037.62 -54.6667 2032.45 -63.5V-60.5C2032.45 -51.7 2046.45 -37.5 2053.45 -31.5Z" fill="#111215"/>
<path d="M2011.45 -50.5C2019.05 -51.7 2026.29 -61.3333 2028.95 -66C2030.62 -62.2357 2032.95 -53.1657 2028.95 -47C2024.95 -40.8343 2005.29 -46.7643 1995.95 -50.5C1997.95 -50 2003.85 -49.3 2011.45 -50.5Z" fill="#111215"/>
<path d="M2029.95 -90V404" stroke="#111215" stroke-width="8"/>
</g>
<defs>
<linearGradient id="paint0_linear_23_324" x1="1024.75" y1="842" x2="1024.75" y2="1378.5" gradientUnits="userSpaceOnUse">
<stop stop-color="#203F33"/>
<stop offset="0.560417" stop-color="#191F1D"/>
<stop offset="1" stop-color="#171F1C"/>
</linearGradient>
<linearGradient id="paint1_linear_23_324" x1="852.5" y1="947.5" x2="852.5" y2="1722.5" gradientUnits="userSpaceOnUse">
<stop stop-color="#375637"/>
<stop offset="0.369792" stop-color="#294829"/>
<stop offset="0.70137" stop-color="#192719"/>
</linearGradient>
<linearGradient id="paint2_linear_23_324" x1="852.5" y1="947.5" x2="852.5" y2="1722.5" gradientUnits="userSpaceOnUse">
<stop stop-color="#375637"/>
<stop offset="0.369792" stop-color="#294829"/>
<stop offset="0.70137" stop-color="#192719"/>
</linearGradient>
<linearGradient id="paint3_linear_23_324" x1="1010.25" y1="1219" x2="1010.25" y2="1462.53" gradientUnits="userSpaceOnUse">
<stop stop-color="#3F623D"/>
<stop offset="1" stop-color="#52B34D"/>
</linearGradient>
<clipPath id="clip0_23_324">
<rect width="2062" height="1319" fill="white"/>
</clipPath>
</defs>
</svg>
