<svg width="828" height="234" viewBox="0 0 828 234" fill="none" xmlns="http://www.w3.org/2000/svg">
<path d="M802.583 182.03C787.732 202.921 771.728 222.768 746.116 222.768L680.287 215.741L550.442 222.768L528.783 212.968L351.611 233.09L197.252 225.898L94.1992 222.768C68.9439 222.768 37.1003 205.364 23.3746 184.144C-7.48083 136.488 -7.86515 88.3112 22.7157 39.6124C23.2648 38.734 23.8687 37.8555 24.4726 36.9771C24.9667 36.2908 25.4609 35.6045 25.9824 34.9457C26.257 34.5339 26.5589 34.1496 26.8883 33.7652C28.3433 31.9535 29.908 30.1966 31.5825 28.4946C32.2139 27.8083 32.8728 27.1495 33.559 26.5181C34.3551 25.7494 35.1787 24.9808 36.0297 24.2396C36.0846 24.1847 36.1395 24.1298 36.1944 24.1023C37.0179 23.3612 37.8415 22.6474 38.7199 21.9611C39.7356 21.1101 40.7788 20.2866 41.8494 19.4905C43.0023 18.6121 44.2102 17.7611 45.4181 16.9375C46.0494 16.4708 46.6808 16.0591 47.3122 15.6473C48.3279 14.9885 49.3162 14.3571 50.3319 13.7257C51.2378 13.1767 52.1711 12.6551 53.077 12.1335C54.0652 11.557 55.0535 11.0355 56.0417 10.5139C56.9751 10.0198 57.9084 9.55309 58.8418 9.08642C59.1163 8.94916 59.3908 8.83936 59.6653 8.7021C60.4889 8.31778 61.3124 7.93346 62.136 7.57659C63.1517 7.10992 64.1674 6.67069 65.2105 6.25892C67.3517 5.35303 69.4929 4.58439 71.6616 3.8981C72.293 3.67849 72.9244 3.48633 73.5558 3.29417C74.5989 2.96475 75.6146 2.66279 76.6578 2.41572C77.7284 2.14121 78.799 1.8667 79.8696 1.64709C79.8696 1.61963 79.9519 1.61963 80.0068 1.61963C81.1049 1.37257 82.2029 1.15296 83.301 0.988251C83.4108 0.9608 83.5206 0.933348 83.6304 0.933348C84.5089 0.76864 85.3873 0.631383 86.2658 0.549028C86.4579 0.494126 86.6226 0.466674 86.8148 0.466674C87.1717 0.411771 87.5285 0.38432 87.8854 0.356868C88.7913 0.247063 89.6697 0.164708 90.5482 0.109806H90.9051C92.0031 0.0274514 93.1012 0 94.1992 0L177.953 6.91776L325.148 0C328.689 0 332.148 0.686285 335.36 2.0314C337.913 3.07456 340.274 4.50203 342.415 6.28637C342.497 6.36873 342.552 6.42363 342.662 6.47853H342.689C342.689 6.47853 342.882 6.67069 342.991 6.7256C343.238 6.94521 343.513 7.13737 343.788 7.30208C344.144 7.57659 344.529 7.7962 344.94 8.01581C345.27 8.20797 345.599 8.37268 345.956 8.53739C346.45 8.757 346.944 8.97661 347.466 9.14132C347.795 9.27858 348.152 9.38838 348.509 9.49819C348.701 9.52564 348.893 9.58054 349.086 9.63545C349.47 9.74525 349.827 9.82761 350.239 9.88251C350.678 9.99232 351.144 10.0472 351.611 10.1021C351.776 10.1296 351.968 10.157 352.133 10.157C352.517 10.2119 352.901 10.2394 353.313 10.2668C354.439 10.3492 355.619 10.3492 356.854 10.2668C357.431 10.2668 358.007 10.1845 358.584 10.1296C358.639 10.1296 358.721 10.1296 358.776 10.1021C358.858 10.1021 358.941 10.1021 359.023 10.0747C359.435 10.0747 359.874 9.99232 360.341 9.90996C360.478 9.90996 360.615 9.88251 360.752 9.85506C360.835 9.85506 360.945 9.82761 361.054 9.80016C361.603 9.74525 362.152 9.63545 362.729 9.49819C363.635 9.33348 364.623 9.05897 365.556 8.83936C366.16 8.7021 366.764 8.53739 367.423 8.34523C368.988 7.87856 370.608 7.35698 372.282 6.75305C379.392 4.20007 386.694 2.30592 394.106 1.18041C399.184 0.411771 404.318 0 409.479 0L622.09 5.05106L746.116 0C771.728 0 787.732 19.8474 802.583 40.7379C836.046 87.8445 836.046 134.924 802.583 182.03Z" fill="#A89C87"/>
<path d="M802.583 182.03C787.731 202.921 771.727 222.768 746.115 222.768L680.287 215.741L550.441 222.768L528.782 212.968L351.611 233.09L249.656 228.341L240.35 227.902L197.251 225.898L94.1989 222.768C68.9436 222.768 37.0999 205.364 23.3742 184.144C18.982 177.336 15.1937 170.528 12.0368 163.72C10.9387 161.332 9.89559 158.971 8.96224 156.583C-6.49291 117.931 -1.99088 78.9503 22.7154 39.6124C23.2644 38.734 23.8684 37.8555 24.4723 36.9771C24.9664 36.2908 25.4605 35.6045 25.9821 34.9457C26.2566 34.5339 26.5586 34.1496 26.888 33.7652C28.3429 31.9535 29.9077 30.1966 31.5822 28.4946C32.2136 27.8083 32.8724 27.1495 33.5587 26.5181C34.3548 25.7494 35.1783 24.9808 36.0293 24.2396C36.0842 24.1847 36.1391 24.1298 36.194 24.1023C37.0176 23.3612 37.8411 22.6474 38.7196 21.9611C39.7353 21.1101 40.7784 20.2866 41.849 19.4905C43.002 18.6121 44.2099 17.7611 45.4177 16.9375C46.0491 16.4708 46.6805 16.0591 47.3119 15.6473C48.3276 14.9885 49.3158 14.3571 50.3315 13.7257C51.2374 13.1767 52.1708 12.6551 53.0767 12.1335C54.0649 11.557 55.0532 11.0355 56.0414 10.5139C56.9748 10.0198 57.9081 9.55309 58.8415 9.08642C59.116 8.94916 59.3905 8.83936 59.665 8.7021C60.4885 8.31778 61.3121 7.93346 62.1356 7.57659C63.1513 7.10992 64.167 6.67069 65.2102 6.25892C67.3514 5.35303 69.4926 4.58439 71.6613 3.8981C72.2927 3.67849 72.924 3.48633 73.5554 3.29417C74.5986 2.96475 75.6143 2.66279 76.6574 2.41572C77.728 2.14121 78.7986 1.8667 79.8692 1.64709C79.8692 1.61963 79.9516 1.61963 80.0065 1.61963C81.1046 1.37257 82.2026 1.15296 83.3007 0.988251C83.4105 0.9608 83.5203 0.933348 83.6301 0.933348C84.5085 0.76864 85.387 0.631383 86.2654 0.549028C86.4576 0.494126 86.6223 0.466674 86.8145 0.466674C87.1713 0.411771 87.5282 0.38432 87.8851 0.356868C88.791 0.247063 89.6694 0.164708 90.5479 0.109806H90.9047C92.0028 0.0274514 93.1008 0 94.1989 0L177.953 6.91776L316.857 0.38432H316.885L320.097 0.247063L325.148 0C328.689 0 332.148 0.686285 335.36 2.0314C337.913 3.07456 340.273 4.50203 342.415 6.28637C342.497 6.36873 342.552 6.42363 342.662 6.47853H342.689C342.689 6.47853 342.881 6.67069 342.991 6.7256C343.238 6.94521 343.513 7.13737 343.787 7.30208C344.144 7.57659 344.528 7.7962 344.94 8.01581C345.27 8.20797 345.599 8.37268 345.956 8.53739C346.45 8.757 346.944 8.97661 347.466 9.14132C347.795 9.27858 348.152 9.38838 348.509 9.49819C348.701 9.52564 348.893 9.58054 349.085 9.63545C349.47 9.74525 349.826 9.82761 350.238 9.88251C350.677 9.99232 351.144 10.0472 351.611 10.1021C351.776 10.1296 351.968 10.157 352.132 10.157C352.517 10.2119 352.901 10.2394 353.313 10.2668C354.438 10.3492 355.619 10.3492 356.854 10.2668C357.431 10.2668 358.007 10.1845 358.583 10.1296C358.638 10.1296 358.721 10.1296 358.776 10.1021C358.858 10.1021 358.94 10.1021 359.023 10.0747C359.434 10.0747 359.874 9.99232 360.34 9.90996C360.478 9.90996 360.615 9.88251 360.752 9.85506C360.835 9.85506 360.944 9.82761 361.054 9.80016C361.603 9.74525 362.152 9.63545 362.729 9.49819C363.635 9.33348 364.623 9.05897 365.556 8.83936C366.16 8.67465 366.791 8.53739 367.423 8.34523C368.988 7.87856 370.607 7.35698 372.282 6.75305C379.392 4.20007 386.694 2.30592 394.106 1.18041C399.184 0.411771 404.318 0 409.478 0L622.09 5.05106L737.248 0.356868L741.888 0.164708L746.115 0C749.602 0 752.896 0.356868 756.053 1.07061C765.029 3.01966 772.716 7.54914 779.633 13.6159C788.171 21.0278 795.473 30.8005 802.583 40.7379C836.046 87.8445 836.046 134.924 802.583 182.03Z" fill="#A89C87"/>
<path d="M78.3868 192.572C71.7985 192.572 62.3003 189.525 47.4216 165.724C24.4173 128.94 24.4448 94.3507 47.5314 56.8521C62.0807 33.2164 71.6612 30.1968 78.3868 30.1968H746.115C755.037 30.1968 763.08 37.2792 777.959 58.2247C804.093 94.9821 804.093 127.759 777.959 164.544C763.053 185.517 755.009 192.572 746.088 192.572H78.3868Z" fill="#C6B69F"/>
<path d="M278.48 30.1968C234.284 63.413 176.883 102.641 137.929 114.555C108.94 123.449 74.1046 137.532 39.8453 151.944C38.5825 149.281 37.457 146.673 36.4688 144.038C67.681 129.955 95.0226 118.371 104.274 116.531C120.36 113.375 208.424 68.4641 272.963 30.1968H278.48Z" fill="#B7A78F"/>
<path d="M723.715 30.1968L691.789 82.9584L591.838 149.583L446.758 165.724L362.262 192.572H337.501C392.651 172.423 440.965 154.497 447.252 151.367C462.652 143.653 584.262 142.116 604.301 128.281C624.313 114.418 687.424 75.9308 690.499 68.217C691.652 65.3071 702.77 49.1657 716.111 30.1968H723.715Z" fill="#B7A78F"/>
<path d="M717.758 58.9378L742.629 63.8241L752.539 85.4284L749.574 53.8867L717.758 58.9378Z" fill="#B7A78F"/>
<path d="M696.785 93.2523L712.954 93.8837L721.327 106.539L716.331 86.9385L696.785 93.2523Z" fill="#B7A78F"/>
<path d="M66.0068 64.1263L80.8306 53.9693L98.4819 62.9459L78.1953 43.6201L66.0068 64.1263Z" fill="#B7A78F"/>
<path d="M550.305 222.878L542.014 192.571H520.959L526.696 213.215L550.305 222.878Z" fill="#BCAC96"/>
<path d="M402.286 30.1963H349.278L342.689 6.50575C345.489 8.78422 349.058 10.0195 353.313 10.2666C354.439 10.3489 355.619 10.3489 356.854 10.2666C361.384 10.047 366.627 8.86657 372.502 6.75281C379.612 4.19983 386.914 2.30568 394.326 1.18018L402.286 30.1963Z" fill="#BCAC96"/>
<path d="M526.697 213.215L351.612 233.09L350.102 233.007L338.847 192.571H520.959L526.697 213.215Z" fill="#938B7C"/>
<path d="M827.509 116.531C826.411 138.355 818.093 160.179 802.583 182.03C789.187 200.889 774.83 218.898 753.308 222.192L745.484 192.572H746.116C755.037 192.572 763.081 185.489 777.959 164.544C789.736 147.963 796.215 132.206 797.34 116.531H827.509Z" fill="#938B7C"/>
<path d="M72.101 191.446L65.1283 216.455C56.9203 213.133 48.932 208.631 41.877 203.305L50.8536 170.995C59.8302 184.199 66.693 189.47 72.101 191.446Z" fill="#938B7C"/>
<path d="M72.1834 31.2396H72.156C66.6931 33.1886 59.7754 38.4044 50.8262 51.7458L41.8496 19.4904C48.9321 14.1373 56.9479 9.60786 65.2108 6.25879L72.1834 31.2396Z" fill="#BCAC96"/>
<path d="M349.278 30.1968H343.184L335.36 2.05908C337.913 3.07478 340.274 4.50226 342.415 6.2866C342.498 6.36895 342.553 6.42386 342.662 6.47876H342.69L349.278 30.1968Z" fill="#938B7C"/>
<path d="M363.498 30.1969H445.468C445.468 30.1969 404.84 27.1498 404.044 25.9694C403.248 24.789 397.263 11.8594 397.263 11.8594C397.263 11.8594 400.557 25.64 399.789 26.4361C399.02 27.2322 363.498 30.1969 363.498 30.1969Z" fill="#DECEB7"/>
<path d="M687.122 30.1961C687.122 30.1961 724.868 29.6471 728.656 23.6352C732.444 17.6234 737.248 0.356445 737.248 0.356445L732.307 23.8C732.307 23.8 738.621 29.9491 742.354 30.1961H687.095H687.122Z" fill="#DECEB7"/>
<path d="M96.368 30.1966H78.3873C73.8304 30.1966 67.9833 31.5692 60.1871 39.8046H60.0498C60.0498 39.8046 69.2735 28.7142 69.9598 28.4397C70.646 28.1652 67.7087 15.1807 67.7087 15.1807C67.7087 15.1807 72.2382 26.1887 73.0069 27.122C73.7755 28.0554 96.368 30.1966 96.368 30.1966Z" fill="#DECEB7"/>
<path d="M244.51 126.48V138H254.95V126.48H244.51ZM254.95 105.48V96.12H244.51V105.48H254.95ZM270.67 159H218.23V75H270.67C276.91 75 281.23 79.32 281.23 85.44V104.76C281.23 110.88 276.19 114.84 270.43 114.84V117.12C276.19 117.12 281.23 121.08 281.23 127.32V148.56C281.23 154.68 276.91 159 270.67 159ZM315.877 138H325.357V122.28H315.877V138ZM358.837 75H385.117V159H358.837V75ZM341.077 101.28C347.197 101.28 351.517 105.6 351.517 111.72V148.44C351.517 154.56 347.197 159 341.077 159H289.597V75H315.877V101.28H341.077ZM425.794 105.48L431.314 75H456.274V86.28L446.554 114.6L458.314 149.04V159H432.034L425.794 126.48H423.634L417.394 159H391.114V149.04L402.874 114.6L393.154 86.28V75H418.114L423.634 105.48H425.794ZM501.043 96.12H490.603V138H501.043V96.12ZM516.763 159H474.883C468.643 159 464.323 154.68 464.323 148.56V85.44C464.323 79.32 468.643 75 474.883 75H516.763C523.003 75 527.323 79.32 527.323 85.44V148.56C527.323 154.68 523.003 159 516.763 159ZM578.14 138V96H574.42L567.94 138H578.14ZM533.38 159V138H541.18L554.02 75H604.42V138H611.38V159H533.38Z" fill="#404140"/>
</svg>
