<svg width="289" height="289" viewBox="0 0 289 289" fill="none" xmlns="http://www.w3.org/2000/svg">
<path d="M288.964 144.509C288.964 184.404 272.787 220.531 246.646 246.676C220.504 272.838 184.382 289 144.491 289C143.027 289 141.581 288.982 140.134 288.928C138.92 288.893 137.688 288.839 136.474 288.768C136.045 288.75 135.599 288.732 135.17 288.696C134.402 288.661 133.635 288.607 132.867 288.536C130.992 288.393 129.135 288.214 127.296 287.982C126.689 287.91 126.099 287.839 125.51 287.768C124.474 287.625 123.457 287.482 122.439 287.321C121.26 287.143 120.082 286.946 118.903 286.732C117.35 286.464 115.796 286.16 114.261 285.821C111.957 285.339 109.69 284.803 107.44 284.196C106.618 283.982 105.797 283.767 105.011 283.517C104.636 283.428 104.261 283.321 103.904 283.214C103.672 283.16 103.458 283.089 103.262 283.017C102.69 282.857 102.119 282.696 101.547 282.499C101.083 282.374 100.637 282.232 100.19 282.071C99.726 281.928 99.2617 281.767 98.8153 281.624C98.6546 281.571 98.5118 281.535 98.3511 281.464C97.1012 281.053 95.8691 280.607 94.6192 280.16C93.3871 279.696 92.155 279.231 90.9408 278.749C88.3874 277.731 85.9054 276.642 83.4234 275.481C82.1914 274.91 80.9593 274.32 79.7451 273.695C78.263 272.963 76.7988 272.195 75.3346 271.392C73.7812 270.534 72.2456 269.659 70.7278 268.731H70.6921C28.3554 243.551 0 197.351 0 144.509C0 101.399 18.8738 62.7181 48.8006 36.2522C48.8006 36.2344 48.8184 36.2522 48.8184 36.2522L48.8363 36.2344C50.7112 34.5557 52.6396 32.9306 54.6038 31.3769C79.263 11.7329 110.475 0 144.473 0C147.777 0 151.044 0.107149 154.294 0.339307H154.312C155.401 0.392881 156.455 0.482172 157.526 0.589322H157.544C166.061 1.35723 174.346 2.85732 182.382 5.03602C208.809 12.1972 232.236 26.6802 250.342 46.1814C255.824 52.0925 260.823 58.45 265.269 65.2004V65.2361C265.269 65.2361 265.323 65.2897 265.341 65.3076C278.179 84.8802 286.393 107.703 288.447 132.294C288.786 136.312 288.964 140.401 288.964 144.509Z" fill="url(#paint0_radial_118_234)"/>
<path d="M105.333 214.281C105.44 213.834 109.011 198.869 101.44 187.886C101.422 187.869 101.404 187.833 101.386 187.815C98.833 184.118 95.0297 180.904 89.405 178.832C74.6916 173.403 66.3886 180.779 59.7283 173.761C59.4783 173.493 59.2283 173.189 58.9962 172.85C55.3893 167.653 54.8357 155.295 75.6559 155.313C95.1904 155.313 112.939 170.242 114.1 189.011C114.582 197.03 112.046 205.745 105.333 214.281Z" fill="#92934F"/>
<path d="M234.361 80.9873C233.039 84.3447 230.539 89.72 227.325 95.8811C227.325 95.8811 227.307 95.9168 227.254 95.9882C219.772 110.346 208.398 128.812 198.506 135.562L198.47 135.598C195.059 137.902 191.845 138.83 189.006 137.723C187.292 137.062 185.721 135.651 184.346 133.348C183.471 131.901 182.864 130.437 182.524 128.972H182.507C176.65 105.31 233.521 81.3445 234.361 80.9873Z" fill="#92934F"/>
<path d="M80.4952 199.887C80.4952 200.762 80.3524 201.619 80.1024 202.423C78.6739 206.852 73.6028 210.12 67.5496 210.12C64.6748 210.12 62.0142 209.37 59.8715 208.12C56.6753 206.262 54.6218 203.262 54.6218 199.887C54.6218 194.226 60.4072 189.654 67.5675 189.654C74.7277 189.654 80.5131 194.226 80.5131 199.887H80.4952Z" fill="#92934F"/>
<path d="M165.811 119.829C165.811 125.472 160.99 130.062 155.044 130.062C152.901 130.062 150.919 129.472 149.241 128.437C146.259 126.615 144.277 123.436 144.277 119.829C144.277 114.168 149.098 109.596 155.044 109.596C159.669 109.596 163.615 112.364 165.133 116.257C165.579 117.365 165.811 118.579 165.811 119.829Z" fill="#92934F"/>
<path d="M234.379 80.9873C233.039 84.3447 230.539 89.72 227.343 95.8811C189.578 113.507 188.024 131.115 189.024 137.723C187.31 137.062 185.739 135.651 184.364 133.348C169.4 108.382 233.486 81.3623 234.379 80.9873Z" fill="#656837"/>
<path d="M114.1 189.011C107.261 171.618 92.1727 163.313 78.2986 163.028C68.4063 162.813 62.3353 168.278 58.9962 172.85C55.3893 167.671 54.8357 155.295 75.6559 155.313C95.1904 155.313 112.939 170.242 114.082 189.029L114.1 189.011Z" fill="#656837"/>
<path d="M80.4952 199.887C80.4952 200.762 80.3524 201.619 80.1024 202.423C77.8525 197.173 73.2992 194.547 66.8175 196.458C60.1929 198.405 59.5679 204.387 59.8715 208.12C56.6753 206.262 54.6218 203.262 54.6218 199.887C54.6218 194.226 60.4072 189.654 67.5675 189.654C74.7277 189.654 80.5131 194.226 80.5131 199.887H80.4952Z" fill="#656837"/>
<path d="M107.082 151.384C107.082 151.384 88.5836 129.954 120.457 92.5413C152.33 55.1282 178.382 56.5033 186.417 65.6646C194.452 74.8259 193.363 83.9336 191.649 91.1483C191.649 91.1483 183.596 62.8787 155.044 78.594C126.492 94.3092 111.493 127.115 112.386 134.526C113.279 141.937 119.582 132.972 119.582 132.972C119.582 132.972 124.51 146.509 147.187 142.401C169.864 138.294 197.916 143.687 189.952 158.617C181.989 173.546 134.295 218.353 134.295 218.353C134.295 218.353 178.435 160.188 169.65 153.402L107.065 151.384H107.082Z" fill="#656837"/>
<path d="M165.133 116.257C161.954 114.596 157.526 113.382 152.901 116.525C147.777 120.025 148.277 125.24 149.241 128.437C146.259 126.615 144.277 123.436 144.277 119.829C144.277 114.168 149.098 109.596 155.044 109.596C159.669 109.596 163.615 112.364 165.133 116.257Z" fill="#656837"/>
<path d="M190.382 96.4882C190.382 96.4882 191.078 72.9332 165.812 81.6837C140.563 90.4343 120.725 115.936 119.582 132.937C118.457 149.938 133.778 153.581 158.687 149.938C179.864 146.848 198.006 151.456 187.275 166.921C176.543 182.386 141.831 211.263 141.831 211.263C141.831 211.263 176.65 172.261 175.168 163.117C174.15 156.831 164.455 157.51 158.651 157.724C153.473 157.921 108.565 159.046 106.494 150.116C104.423 141.187 102.28 109.221 143.331 79.7193C180.15 53.2534 200.613 85.9161 190.399 96.4703L190.382 96.4882Z" fill="#92934F"/>
<path d="M157.544 0.589127C146.188 11.5005 127.189 22.0547 123.957 22.6262C119.725 23.3762 113.261 29.5909 108.029 31.091C102.815 32.5732 91.3696 49.9136 85.6199 54.2174C79.8703 58.5213 69.4423 68.7005 64.7462 74.1829C61.8357 77.5939 55.7289 86.7373 51.5327 92.7019C48.9972 96.345 47.1401 98.8095 47.1401 98.0594C47.1401 97.1129 49.265 92.9341 51.5684 88.1124C53.979 83.0228 56.586 77.2188 57.0681 73.7901C57.9966 67.1468 72.9778 60.8785 76.4955 55.0032C80.0131 49.1278 86.6734 46.3955 87.4591 39.7344C88.2447 33.0911 102.726 27.6086 111.333 21.7333C117.422 17.5723 128.26 14.8579 137.152 13.2506C140.813 12.5899 143.759 9.10751 145.456 7.76814C147.652 6.05375 151.009 3.21429 154.312 0.339111C155.401 0.392686 156.473 0.481977 157.544 0.589127Z" fill="#EEEEB9"/>
<path d="M79.7273 273.695C78.2452 272.963 76.781 272.195 75.3168 271.392C73.7634 270.534 72.2277 269.659 70.71 268.731H70.6921L67.5495 248.64C67.5495 248.64 56.9608 234.889 50.5862 231.461C44.1937 228.014 29.9625 218.728 29.9625 210.12C29.9625 201.512 28.3733 175.904 28.3733 172.153C28.3733 168.403 32.9266 146.045 32.9266 136.241C32.9266 126.436 41.3189 118.597 40.9618 109.596C40.6225 100.578 43.7652 88.6662 43.7652 80.9871C43.7652 73.3081 45.158 69.8793 45.158 60.218C45.158 56.1285 46.8543 46.2529 48.8185 36.2523C48.8185 36.2344 48.8363 36.2344 48.8363 36.2344C50.7112 34.5557 52.6397 32.9306 54.6038 31.377V34.6272C54.6038 34.6272 46.9436 55.682 49.5148 64.504C52.0861 73.326 51.7647 70.8794 51.8004 79.2192C51.8004 83.3444 51.6397 85.6481 51.5683 88.1126C51.5147 89.4877 51.4969 90.8985 51.5326 92.6843C51.5683 94.2022 51.6576 95.9702 51.8004 98.2025C52.4611 107.917 47.7292 110.489 48.9792 115.65C50.2469 120.793 39.5869 131.472 39.5869 135.526C39.5869 139.58 32.9623 153.545 32.9623 160.903C32.9623 168.26 33.3194 169.743 32.9623 175.261C32.5873 180.779 32.5873 188.494 32.9623 195.869C33.3194 203.227 33.3194 206.673 39.2119 214.299C45.0865 221.907 58.2465 223.978 62.0498 230.55C65.8531 237.14 79.5309 231.943 80.4951 247.158C80.8522 252.998 80.2272 263.088 79.7273 273.695Z" fill="#EEEEB9"/>
<path d="M288.982 144.509C288.982 184.422 272.805 220.549 246.645 246.676C220.504 272.838 184.381 289 144.491 289C143.027 289 141.58 288.982 140.134 288.929C138.92 288.893 137.688 288.839 136.474 288.768C136.045 288.75 135.599 288.732 135.17 288.697C134.402 288.661 133.634 288.607 132.867 288.536C130.992 288.393 129.135 288.214 127.296 287.982C126.688 287.911 126.099 287.839 125.51 287.768C124.474 287.625 123.457 287.482 122.439 287.321C121.26 287.143 120.082 286.946 118.903 286.732C117.35 286.464 115.796 286.161 114.261 285.821C111.957 285.339 109.69 284.803 107.44 284.196C106.618 283.982 105.797 283.768 105.011 283.518C104.636 283.428 104.261 283.321 103.904 283.214C103.672 283.16 103.458 283.089 103.261 283.018C102.69 282.857 102.119 282.696 101.547 282.5C101.083 282.375 100.637 282.232 100.19 282.071C99.7259 281.928 99.2616 281.768 98.8152 281.625C98.6545 281.571 98.5117 281.535 98.351 281.464C97.101 281.053 95.869 280.607 94.619 280.16C93.387 279.696 92.1549 279.232 90.9407 278.749C88.3873 277.732 85.9053 276.642 83.4233 275.481C82.1912 274.91 80.9592 274.321 79.7449 273.696C78.2629 272.963 76.7987 272.196 75.3345 271.392L74.156 253.98L80.5128 247.176C80.8163 248.069 95.1011 274.053 112.457 268.427C122.617 265.124 133.01 270.749 153.74 271.624C153.74 271.624 170.632 275.392 181.578 273.374C188.185 272.142 196.702 268.499 205.487 264.945C223.254 257.784 244.038 236.711 251.931 224.085C255.466 218.407 263.501 202.62 267.18 201.209C278.143 197.03 276.911 182.172 279.268 172.154C280.965 164.957 279.233 159.224 281.875 150.867C286.214 137.205 279.304 108.918 273.126 88.595C269.305 76.0049 265.769 66.4686 265.359 65.3257C278.215 84.8805 286.447 107.739 288.482 132.383C288.839 136.384 289 140.42 289 144.509H288.982Z" fill="#EEEEB9"/>
<path d="M288.464 132.383C288.464 132.383 288.464 132.33 288.446 132.294C283.411 114.579 277.161 98.1847 269.751 87.8448C235.414 39.8597 224.433 40.1633 220.183 37.2881C216.397 34.7165 208.237 21.555 190.47 21.555C182.846 21.555 183.06 11.2508 182.382 5.05396C208.809 12.2151 232.236 26.6981 250.342 46.1993C255.824 52.1104 260.823 58.468 265.269 65.2184V65.2541C265.269 65.2541 265.323 65.3077 265.341 65.3255C278.197 84.8981 286.429 107.757 288.464 132.401V132.383Z" fill="#7C7C37"/>
<path d="M190.381 96.488C190.381 96.488 191.649 86.1123 182.382 80.6656C174.721 76.1653 141.616 84.4515 123.725 119.007C123.725 119.007 131.51 106.185 143.456 96.0951C155.401 86.0052 173.436 78.4333 182.382 83.13C186.024 85.0409 188.131 90.2912 190.381 96.488Z" fill="#FFFEB1"/>
<path d="M108.636 123.186C108.636 123.186 100.119 147.563 108.636 152.741C120.85 160.188 145.848 159.599 166.347 158.653C169.293 158.51 174.132 160.903 174.936 162.224C174.936 162.224 175.275 160.438 171.418 158.67C168.079 157.152 163.044 157.635 160.99 157.652C154.33 157.742 140.956 157.992 134.313 157.402C127.671 156.813 116.725 155.867 110.333 151.206C104.351 146.848 104.744 136.901 108.636 123.168V123.186Z" fill="#FFFEB1"/>
<path d="M101.387 187.797C98.8334 184.119 95.0301 180.904 89.4054 178.833C74.692 173.404 66.389 180.779 59.7287 173.761C59.4787 173.493 59.2287 173.189 58.9966 172.85C63.0499 177.404 79.0489 174.422 87.9234 176.922C96.2443 179.243 100.851 186.851 101.387 187.797Z" fill="#FFFEB1"/>
<path d="M227.254 95.988C219.772 110.346 208.398 128.811 198.506 135.562L198.47 135.598C195.06 137.901 191.846 138.83 189.006 137.723C187.292 137.062 185.721 135.651 184.346 133.347C183.471 131.901 182.864 130.437 182.525 128.972C182.81 129.508 189.56 140.241 196.006 135.544C207.059 127.454 225.754 98.0239 227.254 95.988Z" fill="#FFFEB1"/>
<defs>
<radialGradient id="paint0_radial_118_234" cx="0" cy="0" r="1" gradientUnits="userSpaceOnUse" gradientTransform="translate(144.491 144.509) scale(144.491 144.509)">
<stop offset="0.4" stop-color="#C2C155"/>
<stop offset="0.96" stop-color="#92934F"/>
</radialGradient>
</defs>
</svg>
