<svg width="289" height="289" viewBox="0 0 289 289" fill="none" xmlns="http://www.w3.org/2000/svg">
<path d="M288.965 144.509C288.965 184.404 272.787 220.531 246.646 246.676C220.505 272.838 184.382 289 144.491 289C143.027 289 141.581 288.982 140.134 288.928C138.92 288.893 137.688 288.839 136.474 288.768C136.045 288.75 135.599 288.732 135.17 288.696C134.403 288.661 133.635 288.607 132.867 288.536C130.992 288.393 129.135 288.214 127.296 287.982C126.689 287.91 126.1 287.839 125.51 287.768C124.475 287.625 123.457 287.482 122.439 287.321C121.261 287.143 120.082 286.946 118.904 286.732C117.35 286.464 115.797 286.16 114.261 285.821C111.958 285.339 109.69 284.803 107.44 284.196C106.619 283.982 105.797 283.767 105.012 283.517C104.637 283.428 104.262 283.321 103.904 283.214C103.672 283.16 103.458 283.089 103.262 283.017C102.69 282.857 102.119 282.696 101.547 282.499C101.083 282.374 100.637 282.232 100.19 282.071C99.7261 281.928 99.2619 281.767 98.8155 281.624C98.6547 281.571 98.5119 281.535 98.3512 281.464C97.1013 281.053 95.8692 280.606 94.6193 280.16C93.3872 279.696 92.1551 279.231 90.9409 278.749C88.3875 277.731 85.9055 276.642 83.4235 275.481C82.1915 274.91 80.9594 274.32 79.7452 273.695C78.2631 272.963 76.7989 272.195 75.3347 271.392C73.7812 270.534 72.2456 269.659 70.7279 268.731H70.6922C28.3554 243.551 0 197.351 0 144.509C0 101.399 18.8739 62.7181 48.8006 36.2522C48.8006 36.2344 48.8185 36.2522 48.8185 36.2522L48.8363 36.2344C50.7112 34.5557 52.6397 32.9306 54.6038 31.3769C79.2631 11.7329 110.475 0 144.473 0C147.777 0 151.044 0.107149 154.294 0.339307H154.312C155.401 0.392881 156.455 0.482172 157.526 0.589322H157.544C166.061 1.35723 174.347 2.85732 182.382 5.03602C208.809 12.1972 232.236 26.6802 250.342 46.1814C255.824 52.0925 260.824 58.45 265.27 65.2004V65.2361C265.27 65.2361 265.323 65.2897 265.341 65.3076C278.18 84.8802 286.393 107.703 288.447 132.294C288.786 136.312 288.965 140.401 288.965 144.509Z" fill="url(#paint0_radial_118_212)"/>
<path d="M105.333 214.281C105.441 213.835 109.012 198.869 101.441 187.887C101.423 187.869 101.405 187.833 101.387 187.815C98.8338 184.119 95.0304 180.904 89.4058 178.833C74.6924 173.404 66.3893 180.779 59.729 173.761C59.479 173.493 59.229 173.189 58.9969 172.85C55.39 167.653 54.8365 155.295 75.6566 155.313C95.1911 155.313 112.94 170.243 114.101 189.012C114.583 197.03 112.047 205.745 105.333 214.281Z" fill="#32936B"/>
<path d="M234.361 80.9873C233.039 84.3447 230.539 89.72 227.325 95.8811C227.325 95.8811 227.307 95.9168 227.254 95.9882C219.772 110.346 208.398 128.812 198.506 135.562L198.47 135.598C195.059 137.902 191.845 138.83 189.006 137.723C187.292 137.062 185.721 135.651 184.346 133.348C183.471 131.901 182.864 130.437 182.524 128.972H182.507C176.65 105.31 233.521 81.3445 234.361 80.9873Z" fill="#32936B"/>
<path d="M80.495 199.887C80.495 200.762 80.3522 201.619 80.1022 202.423C78.6737 206.852 73.6026 210.12 67.5494 210.12C64.6745 210.12 62.014 209.37 59.8713 208.12C56.675 206.262 54.6216 203.262 54.6216 199.887C54.6216 194.226 60.4069 189.654 67.5672 189.654C74.7275 189.654 80.5129 194.226 80.5129 199.887H80.495Z" fill="#32936B"/>
<path d="M165.811 119.829C165.811 125.472 160.99 130.062 155.044 130.062C152.901 130.062 150.919 129.472 149.241 128.437C146.259 126.615 144.277 123.436 144.277 119.829C144.277 114.168 149.098 109.596 155.044 109.596C159.669 109.596 163.615 112.364 165.133 116.257C165.579 117.365 165.811 118.579 165.811 119.829Z" fill="#32936B"/>
<path d="M234.379 80.9873C233.039 84.3447 230.54 89.72 227.343 95.8811C189.578 113.507 188.024 131.115 189.024 137.723C187.31 137.062 185.739 135.651 184.364 133.348C169.4 108.382 233.486 81.3623 234.379 80.9873Z" fill="#23684F"/>
<path d="M114.101 189.012C107.262 171.618 92.1735 163.314 78.2993 163.028C68.4071 162.814 62.336 168.278 58.9969 172.85C55.39 167.671 54.8365 155.295 75.6566 155.313C95.1912 155.313 112.94 170.243 114.083 189.03L114.101 189.012Z" fill="#23684F"/>
<path d="M80.495 199.887C80.495 200.762 80.3522 201.619 80.1022 202.423C77.8523 197.173 73.299 194.547 66.8173 196.458C60.1927 198.405 59.5677 204.387 59.8713 208.12C56.675 206.262 54.6216 203.262 54.6216 199.887C54.6216 194.226 60.4069 189.654 67.5672 189.654C74.7275 189.654 80.5129 194.226 80.5129 199.887H80.495Z" fill="#23684F"/>
<path d="M107.083 151.384C107.083 151.384 88.5838 129.955 120.457 92.5415C152.33 55.1285 178.382 56.5036 186.417 65.6649C194.452 74.8261 193.363 83.9338 191.649 91.1486C191.649 91.1486 183.596 62.879 155.044 78.5942C126.492 94.3095 111.493 127.115 112.386 134.526C113.279 141.937 119.582 132.973 119.582 132.973C119.582 132.973 124.51 146.509 147.187 142.402C169.865 138.294 197.917 143.687 189.953 158.617C181.989 173.546 134.295 218.353 134.295 218.353C134.295 218.353 178.436 160.189 169.65 153.402L107.065 151.384H107.083Z" fill="#23684F"/>
<path d="M165.133 116.257C161.954 114.596 157.526 113.382 152.901 116.525C147.777 120.025 148.277 125.24 149.241 128.437C146.259 126.615 144.277 123.436 144.277 119.829C144.277 114.168 149.098 109.596 155.044 109.596C159.669 109.596 163.615 112.364 165.133 116.257Z" fill="#23684F"/>
<path d="M190.381 96.4882C190.381 96.4882 191.078 72.9332 165.811 81.6837C140.563 90.4343 120.725 115.936 119.582 132.937C118.457 149.938 133.777 153.581 158.687 149.938C179.864 146.848 198.006 151.456 187.274 166.921C176.543 182.386 141.831 211.263 141.831 211.263C141.831 211.263 176.65 172.261 175.168 163.117C174.15 156.831 164.454 157.51 158.651 157.724C153.473 157.921 108.565 159.046 106.493 150.116C104.422 141.187 102.279 109.221 143.33 79.7193C180.15 53.2534 200.613 85.9161 190.399 96.4703L190.381 96.4882Z" fill="#32936B"/>
<path d="M157.544 0.589371C146.188 11.5008 127.189 22.055 123.957 22.6264C119.725 23.3765 113.261 29.5911 108.029 31.0912C102.815 32.5735 91.3696 49.9138 85.62 54.2177C79.8703 58.5215 69.4424 68.7007 64.7462 74.1832C61.8357 77.5941 55.7289 86.7375 51.5327 92.7022C48.9972 96.3452 47.1401 98.8097 47.1401 98.0596C47.1401 97.1131 49.265 92.9343 51.5684 88.1126C53.979 83.023 56.586 77.2191 57.0681 73.7903C57.9966 67.147 72.9779 60.8788 76.4955 55.0034C80.0131 49.1281 86.6735 46.3957 87.4591 39.7346C88.2448 33.0914 102.726 27.6089 111.333 21.7335C117.422 17.5726 128.26 14.8581 137.153 13.2509C140.813 12.5901 143.759 9.10775 145.456 7.76838C147.652 6.05399 151.009 3.21453 154.312 0.339355C155.401 0.39293 156.473 0.482221 157.544 0.589371Z" fill="#6EEEB3"/>
<path d="M79.7276 273.695C78.2455 272.963 76.7813 272.195 75.3171 271.392C73.7636 270.534 72.228 269.659 70.7103 268.731H70.6924L67.5497 248.64C67.5497 248.64 56.9611 234.889 50.5865 231.461C44.194 228.014 29.9627 218.728 29.9627 210.12C29.9627 201.512 28.3735 175.904 28.3735 172.153C28.3735 168.403 32.9268 146.045 32.9268 136.241C32.9268 126.436 41.3192 118.597 40.9621 109.596C40.6228 100.578 43.7655 88.6662 43.7655 80.9871C43.7655 73.3081 45.1582 69.8793 45.1582 60.218C45.1582 56.1285 46.8546 46.2529 48.8187 36.2523C48.8187 36.2344 48.8366 36.2344 48.8366 36.2344C50.7115 34.5557 52.6399 32.9306 54.6041 31.377V34.6272C54.6041 34.6272 46.9438 55.682 49.5151 64.504C52.0864 73.326 51.765 70.8794 51.8007 79.2192C51.8007 83.3444 51.64 85.6481 51.5686 88.1126C51.515 89.4877 51.4971 90.8985 51.5328 92.6843C51.5686 94.2022 51.6578 95.9702 51.8007 98.2025C52.4614 107.917 47.7295 110.489 48.9794 115.65C50.2472 120.793 39.5871 131.472 39.5871 135.526C39.5871 139.58 32.9625 153.545 32.9625 160.903C32.9625 168.26 33.3197 169.743 32.9625 175.261C32.5876 180.779 32.5876 188.494 32.9625 195.869C33.3197 203.227 33.3197 206.673 39.2122 214.299C45.0868 221.906 58.2467 223.978 62.0501 230.55C65.8534 237.14 79.5312 231.943 80.4954 247.158C80.8525 252.998 80.2275 263.088 79.7276 273.695Z" fill="#6EEEB3"/>
<path d="M288.983 144.509C288.983 184.422 272.805 220.549 246.646 246.676C220.505 272.838 184.382 289 144.491 289C143.027 289 141.581 288.982 140.134 288.929C138.92 288.893 137.688 288.839 136.474 288.768C136.045 288.75 135.599 288.732 135.17 288.697C134.403 288.661 133.635 288.607 132.867 288.536C130.992 288.393 129.135 288.214 127.296 287.982C126.689 287.911 126.1 287.839 125.51 287.768C124.475 287.625 123.457 287.482 122.439 287.321C121.261 287.143 120.082 286.946 118.904 286.732C117.35 286.464 115.797 286.161 114.261 285.821C111.958 285.339 109.69 284.803 107.44 284.196C106.619 283.982 105.797 283.768 105.012 283.518C104.637 283.428 104.262 283.321 103.904 283.214C103.672 283.16 103.458 283.089 103.262 283.018C102.69 282.857 102.119 282.696 101.547 282.5C101.083 282.375 100.637 282.232 100.19 282.071C99.7261 281.928 99.2619 281.768 98.8155 281.625C98.6548 281.571 98.5119 281.535 98.3512 281.464C97.1013 281.053 95.8692 280.607 94.6193 280.16C93.3872 279.696 92.1552 279.232 90.941 278.749C88.3875 277.732 85.9055 276.642 83.4236 275.481C82.1915 274.91 80.9594 274.321 79.7452 273.696C78.2631 272.963 76.7989 272.195 75.3347 271.392L74.1562 253.98L80.513 247.176C80.8166 248.069 95.1014 274.053 112.458 268.427C122.618 265.124 133.01 270.749 153.741 271.624C153.741 271.624 170.633 275.392 181.578 273.374C188.185 272.142 196.702 268.499 205.488 264.945C223.254 257.784 244.039 236.711 251.931 224.085C255.467 218.406 263.502 202.62 267.18 201.209C278.144 197.03 276.912 182.172 279.269 172.154C280.965 164.957 279.233 159.224 281.876 150.867C286.215 137.205 279.305 108.918 273.126 88.595C269.305 76.0049 265.77 66.4686 265.359 65.3257C278.215 84.8805 286.447 107.739 288.483 132.383C288.84 136.384 289 140.42 289 144.509H288.983Z" fill="#6EEEB3"/>
<path d="M288.465 132.383C288.465 132.383 288.465 132.33 288.447 132.294C283.411 114.579 277.162 98.1847 269.752 87.8447C235.414 39.8597 224.433 40.1632 220.183 37.2881C216.398 34.7165 208.237 21.555 190.471 21.555C182.846 21.555 183.06 11.2508 182.382 5.05396C208.809 12.2151 232.236 26.6981 250.342 46.1993C255.824 52.1104 260.824 58.4679 265.27 65.2184V65.2541C265.27 65.2541 265.323 65.3076 265.341 65.3255C278.197 84.8981 286.429 107.757 288.465 132.401V132.383Z" fill="#1F7C54"/>
<path d="M190.382 96.488C190.382 96.488 191.65 86.1123 182.382 80.6656C174.722 76.1653 141.617 84.4515 123.725 119.007C123.725 119.007 131.51 106.185 143.456 96.0951C155.402 86.0052 173.436 78.4333 182.382 83.13C186.025 85.0409 188.132 90.2912 190.382 96.488Z" fill="#7FFFC0"/>
<path d="M108.637 123.186C108.637 123.186 100.119 147.563 108.637 152.741C120.85 160.188 145.849 159.599 166.347 158.653C169.294 158.51 174.133 160.903 174.936 162.224C174.936 162.224 175.275 160.438 171.418 158.67C168.079 157.152 163.044 157.635 160.991 157.652C154.33 157.742 140.956 157.992 134.314 157.402C127.671 156.813 116.725 155.867 110.333 151.206C104.351 146.848 104.744 136.901 108.637 123.168V123.186Z" fill="#7FFFC0"/>
<path d="M101.387 187.797C98.8335 184.119 95.0301 180.904 89.4055 178.833C74.6921 173.404 66.389 180.779 59.7287 173.761C59.4787 173.493 59.2287 173.189 58.9966 172.85C63.0499 177.404 79.0489 174.422 87.9234 176.922C96.2443 179.243 100.851 186.851 101.387 187.797Z" fill="#7FFFC0"/>
<path d="M227.254 95.988C219.773 110.346 208.398 128.811 198.506 135.562L198.47 135.598C195.06 137.901 191.846 138.83 189.007 137.723C187.292 137.062 185.721 135.651 184.346 133.347C183.471 131.901 182.864 130.437 182.525 128.972C182.811 129.508 189.56 140.241 196.006 135.544C207.059 127.454 225.754 98.0239 227.254 95.988Z" fill="#7FFFC0"/>
<defs>
<radialGradient id="paint0_radial_118_212" cx="0" cy="0" r="1" gradientUnits="userSpaceOnUse" gradientTransform="translate(144.491 144.509) scale(144.491 144.509)">
<stop offset="0.4" stop-color="#2FC27E"/>
<stop offset="0.96" stop-color="#32936B"/>
</radialGradient>
</defs>
</svg>
